G04 #@! TF.FileFunction,Legend,Top*
%FSLAX46Y46*%
G04 Gerber Fmt 4.6, Leading zero omitted, Abs format (unit mm)*
G04 Created by KiCad (PCBNEW 4.0.1-stable) date 6/17/2016 12:44:14 AM*
%MOMM*%
G01*
G04 APERTURE LIST*
%ADD10C,0.100000*%
%ADD11C,0.225000*%
G04 APERTURE END LIST*
D10*
D11*
X150785713Y-101907143D02*
X150785713Y-101007143D01*
X151171427Y-101907143D02*
X151171427Y-101435714D01*
X151128570Y-101350000D01*
X151042856Y-101307143D01*
X150914284Y-101307143D01*
X150828570Y-101350000D01*
X150785713Y-101392857D01*
X151599999Y-101907143D02*
X151599999Y-101007143D01*
X151985713Y-101907143D02*
X151985713Y-101435714D01*
X151942856Y-101350000D01*
X151857142Y-101307143D01*
X151728570Y-101307143D01*
X151642856Y-101350000D01*
X151599999Y-101392857D01*
X152414285Y-101907143D02*
X152414285Y-101007143D01*
X152499999Y-101564286D02*
X152757142Y-101907143D01*
X152757142Y-101307143D02*
X152414285Y-101650000D01*
X153142856Y-101907143D02*
X153142856Y-101007143D01*
X153142856Y-101350000D02*
X153228570Y-101307143D01*
X153399999Y-101307143D01*
X153485713Y-101350000D01*
X153528570Y-101392857D01*
X153571427Y-101478571D01*
X153571427Y-101735714D01*
X153528570Y-101821429D01*
X153485713Y-101864286D01*
X153399999Y-101907143D01*
X153228570Y-101907143D01*
X153142856Y-101864286D01*
X153957142Y-101564286D02*
X154642856Y-101564286D01*
X155457142Y-101864286D02*
X155371428Y-101907143D01*
X155199999Y-101907143D01*
X155114285Y-101864286D01*
X155071428Y-101821429D01*
X155028571Y-101735714D01*
X155028571Y-101478571D01*
X155071428Y-101392857D01*
X155114285Y-101350000D01*
X155199999Y-101307143D01*
X155371428Y-101307143D01*
X155457142Y-101350000D01*
X155971428Y-101907143D02*
X155885714Y-101864286D01*
X155842857Y-101821429D01*
X155800000Y-101735714D01*
X155800000Y-101478571D01*
X155842857Y-101392857D01*
X155885714Y-101350000D01*
X155971428Y-101307143D01*
X156100000Y-101307143D01*
X156185714Y-101350000D01*
X156228571Y-101392857D01*
X156271428Y-101478571D01*
X156271428Y-101735714D01*
X156228571Y-101821429D01*
X156185714Y-101864286D01*
X156100000Y-101907143D01*
X155971428Y-101907143D01*
X156571428Y-101307143D02*
X156785714Y-101907143D01*
X157000000Y-101307143D01*
X157685714Y-101864286D02*
X157600000Y-101907143D01*
X157428571Y-101907143D01*
X157342857Y-101864286D01*
X157300000Y-101778571D01*
X157300000Y-101435714D01*
X157342857Y-101350000D01*
X157428571Y-101307143D01*
X157600000Y-101307143D01*
X157685714Y-101350000D01*
X157728571Y-101435714D01*
X157728571Y-101521429D01*
X157300000Y-101607143D01*
X158114286Y-101907143D02*
X158114286Y-101307143D01*
X158114286Y-101478571D02*
X158157143Y-101392857D01*
X158200000Y-101350000D01*
X158285714Y-101307143D01*
X158371429Y-101307143D01*
X158671429Y-101564286D02*
X159357143Y-101564286D01*
X159742858Y-101864286D02*
X159871429Y-101907143D01*
X160085715Y-101907143D01*
X160171429Y-101864286D01*
X160214286Y-101821429D01*
X160257143Y-101735714D01*
X160257143Y-101650000D01*
X160214286Y-101564286D01*
X160171429Y-101521429D01*
X160085715Y-101478571D01*
X159914286Y-101435714D01*
X159828572Y-101392857D01*
X159785715Y-101350000D01*
X159742858Y-101264286D01*
X159742858Y-101178571D01*
X159785715Y-101092857D01*
X159828572Y-101050000D01*
X159914286Y-101007143D01*
X160128572Y-101007143D01*
X160257143Y-101050000D01*
X160600001Y-101864286D02*
X160728572Y-101907143D01*
X160942858Y-101907143D01*
X161028572Y-101864286D01*
X161071429Y-101821429D01*
X161114286Y-101735714D01*
X161114286Y-101650000D01*
X161071429Y-101564286D01*
X161028572Y-101521429D01*
X160942858Y-101478571D01*
X160771429Y-101435714D01*
X160685715Y-101392857D01*
X160642858Y-101350000D01*
X160600001Y-101264286D01*
X160600001Y-101178571D01*
X160642858Y-101092857D01*
X160685715Y-101050000D01*
X160771429Y-101007143D01*
X160985715Y-101007143D01*
X161114286Y-101050000D01*
X161457144Y-101092857D02*
X161500001Y-101050000D01*
X161585715Y-101007143D01*
X161800001Y-101007143D01*
X161885715Y-101050000D01*
X161928572Y-101092857D01*
X161971429Y-101178571D01*
X161971429Y-101264286D01*
X161928572Y-101392857D01*
X161414286Y-101907143D01*
X161971429Y-101907143D01*
X162314287Y-101092857D02*
X162357144Y-101050000D01*
X162442858Y-101007143D01*
X162657144Y-101007143D01*
X162742858Y-101050000D01*
X162785715Y-101092857D01*
X162828572Y-101178571D01*
X162828572Y-101264286D01*
X162785715Y-101392857D01*
X162271429Y-101907143D01*
X162828572Y-101907143D01*
X163171430Y-101864286D02*
X163300001Y-101907143D01*
X163514287Y-101907143D01*
X163600001Y-101864286D01*
X163642858Y-101821429D01*
X163685715Y-101735714D01*
X163685715Y-101650000D01*
X163642858Y-101564286D01*
X163600001Y-101521429D01*
X163514287Y-101478571D01*
X163342858Y-101435714D01*
X163257144Y-101392857D01*
X163214287Y-101350000D01*
X163171430Y-101264286D01*
X163171430Y-101178571D01*
X163214287Y-101092857D01*
X163257144Y-101050000D01*
X163342858Y-101007143D01*
X163557144Y-101007143D01*
X163685715Y-101050000D01*
X164071430Y-101907143D02*
X164071430Y-101007143D01*
X164285715Y-101007143D01*
X164414287Y-101050000D01*
X164500001Y-101135714D01*
X164542858Y-101221429D01*
X164585715Y-101392857D01*
X164585715Y-101521429D01*
X164542858Y-101692857D01*
X164500001Y-101778571D01*
X164414287Y-101864286D01*
X164285715Y-101907143D01*
X164071430Y-101907143D01*
X164971430Y-101907143D02*
X164971430Y-101007143D01*
X164971430Y-101435714D02*
X165485715Y-101435714D01*
X165485715Y-101907143D02*
X165485715Y-101007143D01*
X165871430Y-101092857D02*
X165914287Y-101050000D01*
X166000001Y-101007143D01*
X166214287Y-101007143D01*
X166300001Y-101050000D01*
X166342858Y-101092857D01*
X166385715Y-101178571D01*
X166385715Y-101264286D01*
X166342858Y-101392857D01*
X165828572Y-101907143D01*
X166385715Y-101907143D01*
X166771430Y-101564286D02*
X167457144Y-101564286D01*
X168400001Y-101907143D02*
X168100001Y-101478571D01*
X167885716Y-101907143D02*
X167885716Y-101007143D01*
X168228573Y-101007143D01*
X168314287Y-101050000D01*
X168357144Y-101092857D01*
X168400001Y-101178571D01*
X168400001Y-101307143D01*
X168357144Y-101392857D01*
X168314287Y-101435714D01*
X168228573Y-101478571D01*
X167885716Y-101478571D01*
X168742859Y-101092857D02*
X168785716Y-101050000D01*
X168871430Y-101007143D01*
X169085716Y-101007143D01*
X169171430Y-101050000D01*
X169214287Y-101092857D01*
X169257144Y-101178571D01*
X169257144Y-101264286D01*
X169214287Y-101392857D01*
X168700001Y-101907143D01*
X169257144Y-101907143D01*
M02*
