G04 #@! TF.FileFunction,Soldermask,Top*
%FSLAX46Y46*%
G04 Gerber Fmt 4.6, Leading zero omitted, Abs format (unit mm)*
G04 Created by KiCad (PCBNEW 4.0.1-stable) date 6/14/2016 12:32:48 PM*
%MOMM*%
G01*
G04 APERTURE LIST*
%ADD10C,0.100000*%
%ADD11C,0.250000*%
%ADD12C,3.500000*%
G04 APERTURE END LIST*
D10*
D11*
X162414286Y-106757143D02*
X162366667Y-106804762D01*
X162223810Y-106852381D01*
X162128572Y-106852381D01*
X161985714Y-106804762D01*
X161890476Y-106709524D01*
X161842857Y-106614286D01*
X161795238Y-106423810D01*
X161795238Y-106280952D01*
X161842857Y-106090476D01*
X161890476Y-105995238D01*
X161985714Y-105900000D01*
X162128572Y-105852381D01*
X162223810Y-105852381D01*
X162366667Y-105900000D01*
X162414286Y-105947619D01*
X162842857Y-106852381D02*
X162842857Y-105852381D01*
X163271429Y-106852381D02*
X163271429Y-106328571D01*
X163223810Y-106233333D01*
X163128572Y-106185714D01*
X162985714Y-106185714D01*
X162890476Y-106233333D01*
X162842857Y-106280952D01*
X164176191Y-106852381D02*
X164176191Y-106328571D01*
X164128572Y-106233333D01*
X164033334Y-106185714D01*
X163842857Y-106185714D01*
X163747619Y-106233333D01*
X164176191Y-106804762D02*
X164080953Y-106852381D01*
X163842857Y-106852381D01*
X163747619Y-106804762D01*
X163700000Y-106709524D01*
X163700000Y-106614286D01*
X163747619Y-106519048D01*
X163842857Y-106471429D01*
X164080953Y-106471429D01*
X164176191Y-106423810D01*
X164652381Y-106852381D02*
X164652381Y-106185714D01*
X164652381Y-106376190D02*
X164700000Y-106280952D01*
X164747619Y-106233333D01*
X164842857Y-106185714D01*
X164938096Y-106185714D01*
X165700001Y-106185714D02*
X165700001Y-106995238D01*
X165652382Y-107090476D01*
X165604763Y-107138095D01*
X165509524Y-107185714D01*
X165366667Y-107185714D01*
X165271429Y-107138095D01*
X165700001Y-106804762D02*
X165604763Y-106852381D01*
X165414286Y-106852381D01*
X165319048Y-106804762D01*
X165271429Y-106757143D01*
X165223810Y-106661905D01*
X165223810Y-106376190D01*
X165271429Y-106280952D01*
X165319048Y-106233333D01*
X165414286Y-106185714D01*
X165604763Y-106185714D01*
X165700001Y-106233333D01*
X166557144Y-106804762D02*
X166461906Y-106852381D01*
X166271429Y-106852381D01*
X166176191Y-106804762D01*
X166128572Y-106709524D01*
X166128572Y-106328571D01*
X166176191Y-106233333D01*
X166271429Y-106185714D01*
X166461906Y-106185714D01*
X166557144Y-106233333D01*
X166604763Y-106328571D01*
X166604763Y-106423810D01*
X166128572Y-106519048D01*
X155390477Y-106328571D02*
X155533334Y-106376190D01*
X155580953Y-106423810D01*
X155628572Y-106519048D01*
X155628572Y-106661905D01*
X155580953Y-106757143D01*
X155533334Y-106804762D01*
X155438096Y-106852381D01*
X155057143Y-106852381D01*
X155057143Y-105852381D01*
X155390477Y-105852381D01*
X155485715Y-105900000D01*
X155533334Y-105947619D01*
X155580953Y-106042857D01*
X155580953Y-106138095D01*
X155533334Y-106233333D01*
X155485715Y-106280952D01*
X155390477Y-106328571D01*
X155057143Y-106328571D01*
X155914286Y-105852381D02*
X156485715Y-105852381D01*
X156200000Y-106852381D02*
X156200000Y-105852381D01*
D12*
X164300000Y-109200000D03*
X155700000Y-109200000D03*
M02*
