G04 #@! TF.FileFunction,Copper,L1,Top,Signal*
%FSLAX46Y46*%
G04 Gerber Fmt 4.6, Leading zero omitted, Abs format (unit mm)*
G04 Created by KiCad (PCBNEW 4.0.1-stable) date 6/17/2016 12:44:14 AM*
%MOMM*%
G01*
G04 APERTURE LIST*
%ADD10C,0.100000*%
%ADD11C,1.000000*%
%ADD12C,0.100000*%
%ADD13C,0.254000*%
G04 APERTURE END LIST*
D10*
D11*
X160000000Y-109800000D03*
D12*
X150400000Y-100400000D03*
D13*
G36*
X161548000Y-112873000D02*
X158452000Y-112873000D01*
X158452000Y-110590104D01*
X159389501Y-110590104D01*
X159426648Y-110805217D01*
X159854972Y-110948112D01*
X160305375Y-110916217D01*
X160573352Y-110805217D01*
X160610499Y-110590104D01*
X160000000Y-109979605D01*
X159389501Y-110590104D01*
X158452000Y-110590104D01*
X158452000Y-109654972D01*
X158851888Y-109654972D01*
X158883783Y-110105375D01*
X158994783Y-110373352D01*
X159209896Y-110410499D01*
X159820395Y-109800000D01*
X160179605Y-109800000D01*
X160790104Y-110410499D01*
X161005217Y-110373352D01*
X161148112Y-109945028D01*
X161116217Y-109494625D01*
X161005217Y-109226648D01*
X160790104Y-109189501D01*
X160179605Y-109800000D01*
X159820395Y-109800000D01*
X159209896Y-109189501D01*
X158994783Y-109226648D01*
X158851888Y-109654972D01*
X158452000Y-109654972D01*
X158452000Y-109009896D01*
X159389501Y-109009896D01*
X160000000Y-109620395D01*
X160610499Y-109009896D01*
X160573352Y-108794783D01*
X160145028Y-108651888D01*
X159694625Y-108683783D01*
X159426648Y-108794783D01*
X159389501Y-109009896D01*
X158452000Y-109009896D01*
X158452000Y-106702000D01*
X161548000Y-106702000D01*
X161548000Y-112873000D01*
X161548000Y-112873000D01*
G37*
X161548000Y-112873000D02*
X158452000Y-112873000D01*
X158452000Y-110590104D01*
X159389501Y-110590104D01*
X159426648Y-110805217D01*
X159854972Y-110948112D01*
X160305375Y-110916217D01*
X160573352Y-110805217D01*
X160610499Y-110590104D01*
X160000000Y-109979605D01*
X159389501Y-110590104D01*
X158452000Y-110590104D01*
X158452000Y-109654972D01*
X158851888Y-109654972D01*
X158883783Y-110105375D01*
X158994783Y-110373352D01*
X159209896Y-110410499D01*
X159820395Y-109800000D01*
X160179605Y-109800000D01*
X160790104Y-110410499D01*
X161005217Y-110373352D01*
X161148112Y-109945028D01*
X161116217Y-109494625D01*
X161005217Y-109226648D01*
X160790104Y-109189501D01*
X160179605Y-109800000D01*
X159820395Y-109800000D01*
X159209896Y-109189501D01*
X158994783Y-109226648D01*
X158851888Y-109654972D01*
X158452000Y-109654972D01*
X158452000Y-109009896D01*
X159389501Y-109009896D01*
X160000000Y-109620395D01*
X160610499Y-109009896D01*
X160573352Y-108794783D01*
X160145028Y-108651888D01*
X159694625Y-108683783D01*
X159426648Y-108794783D01*
X159389501Y-109009896D01*
X158452000Y-109009896D01*
X158452000Y-106702000D01*
X161548000Y-106702000D01*
X161548000Y-112873000D01*
M02*
