G04 #@! TF.FileFunction,Legend,Top*
%FSLAX46Y46*%
G04 Gerber Fmt 4.6, Leading zero omitted, Abs format (unit mm)*
G04 Created by KiCad (PCBNEW 4.0.1-stable) date 6/14/2016 12:32:48 PM*
%MOMM*%
G01*
G04 APERTURE LIST*
%ADD10C,0.100000*%
%ADD11C,0.225000*%
G04 APERTURE END LIST*
D10*
D11*
X152885713Y-101407143D02*
X152885713Y-100507143D01*
X153271427Y-101407143D02*
X153271427Y-100935714D01*
X153228570Y-100850000D01*
X153142856Y-100807143D01*
X153014284Y-100807143D01*
X152928570Y-100850000D01*
X152885713Y-100892857D01*
X153699999Y-101407143D02*
X153699999Y-100507143D01*
X154085713Y-101407143D02*
X154085713Y-100935714D01*
X154042856Y-100850000D01*
X153957142Y-100807143D01*
X153828570Y-100807143D01*
X153742856Y-100850000D01*
X153699999Y-100892857D01*
X154514285Y-101407143D02*
X154514285Y-100507143D01*
X154599999Y-101064286D02*
X154857142Y-101407143D01*
X154857142Y-100807143D02*
X154514285Y-101150000D01*
X155242856Y-101407143D02*
X155242856Y-100507143D01*
X155242856Y-100850000D02*
X155328570Y-100807143D01*
X155499999Y-100807143D01*
X155585713Y-100850000D01*
X155628570Y-100892857D01*
X155671427Y-100978571D01*
X155671427Y-101235714D01*
X155628570Y-101321429D01*
X155585713Y-101364286D01*
X155499999Y-101407143D01*
X155328570Y-101407143D01*
X155242856Y-101364286D01*
X156057142Y-101064286D02*
X156742856Y-101064286D01*
X157557142Y-101364286D02*
X157471428Y-101407143D01*
X157299999Y-101407143D01*
X157214285Y-101364286D01*
X157171428Y-101321429D01*
X157128571Y-101235714D01*
X157128571Y-100978571D01*
X157171428Y-100892857D01*
X157214285Y-100850000D01*
X157299999Y-100807143D01*
X157471428Y-100807143D01*
X157557142Y-100850000D01*
X158071428Y-101407143D02*
X157985714Y-101364286D01*
X157942857Y-101321429D01*
X157900000Y-101235714D01*
X157900000Y-100978571D01*
X157942857Y-100892857D01*
X157985714Y-100850000D01*
X158071428Y-100807143D01*
X158200000Y-100807143D01*
X158285714Y-100850000D01*
X158328571Y-100892857D01*
X158371428Y-100978571D01*
X158371428Y-101235714D01*
X158328571Y-101321429D01*
X158285714Y-101364286D01*
X158200000Y-101407143D01*
X158071428Y-101407143D01*
X158671428Y-100807143D02*
X158885714Y-101407143D01*
X159100000Y-100807143D01*
X159785714Y-101364286D02*
X159700000Y-101407143D01*
X159528571Y-101407143D01*
X159442857Y-101364286D01*
X159400000Y-101278571D01*
X159400000Y-100935714D01*
X159442857Y-100850000D01*
X159528571Y-100807143D01*
X159700000Y-100807143D01*
X159785714Y-100850000D01*
X159828571Y-100935714D01*
X159828571Y-101021429D01*
X159400000Y-101107143D01*
X160214286Y-101407143D02*
X160214286Y-100807143D01*
X160214286Y-100978571D02*
X160257143Y-100892857D01*
X160300000Y-100850000D01*
X160385714Y-100807143D01*
X160471429Y-100807143D01*
X160771429Y-101064286D02*
X161457143Y-101064286D01*
X162014286Y-101407143D02*
X161928572Y-101364286D01*
X161885715Y-101278571D01*
X161885715Y-100507143D01*
X162700001Y-101364286D02*
X162614287Y-101407143D01*
X162442858Y-101407143D01*
X162357144Y-101364286D01*
X162314287Y-101278571D01*
X162314287Y-100935714D01*
X162357144Y-100850000D01*
X162442858Y-100807143D01*
X162614287Y-100807143D01*
X162700001Y-100850000D01*
X162742858Y-100935714D01*
X162742858Y-101021429D01*
X162314287Y-101107143D01*
X163514287Y-101407143D02*
X163514287Y-100507143D01*
X163514287Y-101364286D02*
X163428573Y-101407143D01*
X163257144Y-101407143D01*
X163171430Y-101364286D01*
X163128573Y-101321429D01*
X163085716Y-101235714D01*
X163085716Y-100978571D01*
X163128573Y-100892857D01*
X163171430Y-100850000D01*
X163257144Y-100807143D01*
X163428573Y-100807143D01*
X163514287Y-100850000D01*
X163900002Y-101364286D02*
X163985716Y-101407143D01*
X164157144Y-101407143D01*
X164242859Y-101364286D01*
X164285716Y-101278571D01*
X164285716Y-101235714D01*
X164242859Y-101150000D01*
X164157144Y-101107143D01*
X164028573Y-101107143D01*
X163942859Y-101064286D01*
X163900002Y-100978571D01*
X163900002Y-100935714D01*
X163942859Y-100850000D01*
X164028573Y-100807143D01*
X164157144Y-100807143D01*
X164242859Y-100850000D01*
X164671430Y-101064286D02*
X165357144Y-101064286D01*
X166300001Y-101407143D02*
X166000001Y-100978571D01*
X165785716Y-101407143D02*
X165785716Y-100507143D01*
X166128573Y-100507143D01*
X166214287Y-100550000D01*
X166257144Y-100592857D01*
X166300001Y-100678571D01*
X166300001Y-100807143D01*
X166257144Y-100892857D01*
X166214287Y-100935714D01*
X166128573Y-100978571D01*
X165785716Y-100978571D01*
X166642859Y-100592857D02*
X166685716Y-100550000D01*
X166771430Y-100507143D01*
X166985716Y-100507143D01*
X167071430Y-100550000D01*
X167114287Y-100592857D01*
X167157144Y-100678571D01*
X167157144Y-100764286D01*
X167114287Y-100892857D01*
X166600001Y-101407143D01*
X167157144Y-101407143D01*
M02*
