G04 #@! TF.FileFunction,Legend,Bot*
%FSLAX46Y46*%
G04 Gerber Fmt 4.6, Leading zero omitted, Abs format (unit mm)*
G04 Created by KiCad (PCBNEW 4.0.0-rc1-stable) date fre  9 okt 2015 20:00:11*
%MOMM*%
G01*
G04 APERTURE LIST*
%ADD10C,0.100000*%
%ADD11C,0.200000*%
%ADD12C,0.300000*%
G04 APERTURE END LIST*
D10*
D11*
X70913867Y-9132105D02*
X70647200Y-9932105D01*
X70380533Y-9132105D01*
X69656724Y-9855914D02*
X69694819Y-9894010D01*
X69809105Y-9932105D01*
X69885295Y-9932105D01*
X69999581Y-9894010D01*
X70075772Y-9817819D01*
X70113867Y-9741629D01*
X70151962Y-9589248D01*
X70151962Y-9474962D01*
X70113867Y-9322581D01*
X70075772Y-9246390D01*
X69999581Y-9170200D01*
X69885295Y-9132105D01*
X69809105Y-9132105D01*
X69694819Y-9170200D01*
X69656724Y-9208295D01*
X68856724Y-9855914D02*
X68894819Y-9894010D01*
X69009105Y-9932105D01*
X69085295Y-9932105D01*
X69199581Y-9894010D01*
X69275772Y-9817819D01*
X69313867Y-9741629D01*
X69351962Y-9589248D01*
X69351962Y-9474962D01*
X69313867Y-9322581D01*
X69275772Y-9246390D01*
X69199581Y-9170200D01*
X69085295Y-9132105D01*
X69009105Y-9132105D01*
X68894819Y-9170200D01*
X68856724Y-9208295D01*
X65421162Y-10033705D02*
X65421162Y-9233705D01*
X65230686Y-9233705D01*
X65116400Y-9271800D01*
X65040209Y-9347990D01*
X65002114Y-9424181D01*
X64964019Y-9576562D01*
X64964019Y-9690848D01*
X65002114Y-9843229D01*
X65040209Y-9919419D01*
X65116400Y-9995610D01*
X65230686Y-10033705D01*
X65421162Y-10033705D01*
X64621162Y-9728943D02*
X64011638Y-9728943D01*
X64316400Y-10033705D02*
X64316400Y-9424181D01*
X68062762Y-9982905D02*
X68062762Y-9182905D01*
X67872286Y-9182905D01*
X67758000Y-9221000D01*
X67681809Y-9297190D01*
X67643714Y-9373381D01*
X67605619Y-9525762D01*
X67605619Y-9640048D01*
X67643714Y-9792429D01*
X67681809Y-9868619D01*
X67758000Y-9944810D01*
X67872286Y-9982905D01*
X68062762Y-9982905D01*
X67262762Y-9678143D02*
X66653238Y-9678143D01*
X62836723Y-9271800D02*
X62912914Y-9233705D01*
X63027199Y-9233705D01*
X63141485Y-9271800D01*
X63217676Y-9347990D01*
X63255771Y-9424181D01*
X63293866Y-9576562D01*
X63293866Y-9690848D01*
X63255771Y-9843229D01*
X63217676Y-9919419D01*
X63141485Y-9995610D01*
X63027199Y-10033705D01*
X62951009Y-10033705D01*
X62836723Y-9995610D01*
X62798628Y-9957514D01*
X62798628Y-9690848D01*
X62951009Y-9690848D01*
X62455771Y-10033705D02*
X62455771Y-9233705D01*
X61998628Y-10033705D01*
X61998628Y-9233705D01*
X61617676Y-10033705D02*
X61617676Y-9233705D01*
X61427200Y-9233705D01*
X61312914Y-9271800D01*
X61236723Y-9347990D01*
X61198628Y-9424181D01*
X61160533Y-9576562D01*
X61160533Y-9690848D01*
X61198628Y-9843229D01*
X61236723Y-9919419D01*
X61312914Y-9995610D01*
X61427200Y-10033705D01*
X61617676Y-10033705D01*
D12*
X66829399Y-8098571D02*
X67329399Y-7384286D01*
X67686542Y-8098571D02*
X67686542Y-6598571D01*
X67115114Y-6598571D01*
X66972256Y-6670000D01*
X66900828Y-6741429D01*
X66829399Y-6884286D01*
X66829399Y-7098571D01*
X66900828Y-7241429D01*
X66972256Y-7312857D01*
X67115114Y-7384286D01*
X67686542Y-7384286D01*
X66257971Y-6741429D02*
X66186542Y-6670000D01*
X66043685Y-6598571D01*
X65686542Y-6598571D01*
X65543685Y-6670000D01*
X65472256Y-6741429D01*
X65400828Y-6884286D01*
X65400828Y-7027143D01*
X65472256Y-7241429D01*
X66329399Y-8098571D01*
X65400828Y-8098571D01*
D11*
X69334943Y-971257D02*
X69334943Y-1942686D01*
X69277800Y-2056971D01*
X69220657Y-2114114D01*
X69106371Y-2171257D01*
X68877800Y-2171257D01*
X68763514Y-2114114D01*
X68706371Y-2056971D01*
X68649228Y-1942686D01*
X68649228Y-971257D01*
X68134943Y-2114114D02*
X67963514Y-2171257D01*
X67677800Y-2171257D01*
X67563514Y-2114114D01*
X67506371Y-2056971D01*
X67449228Y-1942686D01*
X67449228Y-1828400D01*
X67506371Y-1714114D01*
X67563514Y-1656971D01*
X67677800Y-1599829D01*
X67906371Y-1542686D01*
X68020657Y-1485543D01*
X68077800Y-1428400D01*
X68134943Y-1314114D01*
X68134943Y-1199829D01*
X68077800Y-1085543D01*
X68020657Y-1028400D01*
X67906371Y-971257D01*
X67620657Y-971257D01*
X67449228Y-1028400D01*
X66534943Y-1542686D02*
X66363514Y-1599829D01*
X66306371Y-1656971D01*
X66249228Y-1771257D01*
X66249228Y-1942686D01*
X66306371Y-2056971D01*
X66363514Y-2114114D01*
X66477800Y-2171257D01*
X66934943Y-2171257D01*
X66934943Y-971257D01*
X66534943Y-971257D01*
X66420657Y-1028400D01*
X66363514Y-1085543D01*
X66306371Y-1199829D01*
X66306371Y-1314114D01*
X66363514Y-1428400D01*
X66420657Y-1485543D01*
X66534943Y-1542686D01*
X66934943Y-1542686D01*
X65734943Y-1714114D02*
X64820657Y-1714114D01*
X63563514Y-2056971D02*
X63620657Y-2114114D01*
X63792086Y-2171257D01*
X63906372Y-2171257D01*
X64077800Y-2114114D01*
X64192086Y-1999829D01*
X64249229Y-1885543D01*
X64306372Y-1656971D01*
X64306372Y-1485543D01*
X64249229Y-1256971D01*
X64192086Y-1142686D01*
X64077800Y-1028400D01*
X63906372Y-971257D01*
X63792086Y-971257D01*
X63620657Y-1028400D01*
X63563514Y-1085543D01*
X69820657Y-3251257D02*
X69363514Y-3251257D01*
X69649229Y-4051257D02*
X69649229Y-3022686D01*
X69592086Y-2908400D01*
X69477800Y-2851257D01*
X69363514Y-2851257D01*
X68792086Y-4051257D02*
X68906372Y-3994114D01*
X68963515Y-3936971D01*
X69020658Y-3822686D01*
X69020658Y-3479829D01*
X68963515Y-3365543D01*
X68906372Y-3308400D01*
X68792086Y-3251257D01*
X68620658Y-3251257D01*
X68506372Y-3308400D01*
X68449229Y-3365543D01*
X68392086Y-3479829D01*
X68392086Y-3822686D01*
X68449229Y-3936971D01*
X68506372Y-3994114D01*
X68620658Y-4051257D01*
X68792086Y-4051257D01*
X67877801Y-4051257D02*
X67877801Y-3251257D01*
X67877801Y-3479829D02*
X67820658Y-3365543D01*
X67763515Y-3308400D01*
X67649229Y-3251257D01*
X67534944Y-3251257D01*
X66392086Y-2851257D02*
X65706372Y-2851257D01*
X66049229Y-4051257D02*
X66049229Y-2851257D01*
X65306372Y-4051257D02*
X65306372Y-2851257D01*
X64906372Y-3708400D01*
X64506372Y-2851257D01*
X64506372Y-4051257D01*
X63934943Y-4051257D02*
X63934943Y-2851257D01*
X63249228Y-4051257D02*
X63763514Y-3365543D01*
X63249228Y-2851257D02*
X63934943Y-3536971D01*
X72134943Y-5588400D02*
X71563514Y-5588400D01*
X72249228Y-5931257D02*
X71849228Y-4731257D01*
X71449228Y-5931257D01*
X70877800Y-5931257D02*
X70992086Y-5874114D01*
X71049229Y-5759829D01*
X71049229Y-4731257D01*
X70592086Y-5131257D02*
X70134943Y-5131257D01*
X70420658Y-4731257D02*
X70420658Y-5759829D01*
X70363515Y-5874114D01*
X70249229Y-5931257D01*
X70134943Y-5931257D01*
X68820658Y-5931257D02*
X68820658Y-4731257D01*
X68820658Y-5302686D02*
X68134943Y-5302686D01*
X68134943Y-5931257D02*
X68134943Y-4731257D01*
X67563515Y-5931257D02*
X67563515Y-4731257D01*
X67563515Y-5302686D02*
X66877800Y-5302686D01*
X66877800Y-5931257D02*
X66877800Y-4731257D01*
X66306372Y-5931257D02*
X66306372Y-4731257D01*
X65620657Y-5931257D02*
X66134943Y-5245543D01*
X65620657Y-4731257D02*
X66306372Y-5416971D01*
X64706372Y-5302686D02*
X64534943Y-5359829D01*
X64477800Y-5416971D01*
X64420657Y-5531257D01*
X64420657Y-5702686D01*
X64477800Y-5816971D01*
X64534943Y-5874114D01*
X64649229Y-5931257D01*
X65106372Y-5931257D01*
X65106372Y-4731257D01*
X64706372Y-4731257D01*
X64592086Y-4788400D01*
X64534943Y-4845543D01*
X64477800Y-4959829D01*
X64477800Y-5074114D01*
X64534943Y-5188400D01*
X64592086Y-5245543D01*
X64706372Y-5302686D01*
X65106372Y-5302686D01*
X62992086Y-5931257D02*
X62992086Y-4731257D01*
X62534943Y-4731257D01*
X62420657Y-4788400D01*
X62363514Y-4845543D01*
X62306371Y-4959829D01*
X62306371Y-5131257D01*
X62363514Y-5245543D01*
X62420657Y-5302686D01*
X62534943Y-5359829D01*
X62992086Y-5359829D01*
X61106371Y-5816971D02*
X61163514Y-5874114D01*
X61334943Y-5931257D01*
X61449229Y-5931257D01*
X61620657Y-5874114D01*
X61734943Y-5759829D01*
X61792086Y-5645543D01*
X61849229Y-5416971D01*
X61849229Y-5245543D01*
X61792086Y-5016971D01*
X61734943Y-4902686D01*
X61620657Y-4788400D01*
X61449229Y-4731257D01*
X61334943Y-4731257D01*
X61163514Y-4788400D01*
X61106371Y-4845543D01*
X60192086Y-5302686D02*
X60020657Y-5359829D01*
X59963514Y-5416971D01*
X59906371Y-5531257D01*
X59906371Y-5702686D01*
X59963514Y-5816971D01*
X60020657Y-5874114D01*
X60134943Y-5931257D01*
X60592086Y-5931257D01*
X60592086Y-4731257D01*
X60192086Y-4731257D01*
X60077800Y-4788400D01*
X60020657Y-4845543D01*
X59963514Y-4959829D01*
X59963514Y-5074114D01*
X60020657Y-5188400D01*
X60077800Y-5245543D01*
X60192086Y-5302686D01*
X60592086Y-5302686D01*
M02*
