M48
;DRILL file {KiCad 4.0.0-rc1-stable} date fre  9 okt 2015 20:00:13
;FORMAT={2:4/ absolute / inch / suppress leading zeros}
FMAT,2
INCH,TZ
T1C0.013
T2C0.024
T3C0.040
T4C0.098
%
G90
G05
M72
T1
X23799Y-4189
X24649Y-3889
X25521Y-3712
X25646Y-2909
X25941Y-2909
X26024Y-3564
X26244Y-3944
X26433Y-2909
X26549Y-3794
X26728Y-2909
X28248Y-4189
T2
X24768Y-2171
X27602Y-2171
T3
X24502Y-4371
X24573Y-2959
X25502Y-4371
X26502Y-4371
X27502Y-4371
X27797Y-2959
T4
X24154Y-970
X28217Y-970
T0
M30
