  0
SECTION
  2
HEADER
  9
$ACADVER
  1
AC1009
  9
$INSBASE
 10
0.0
 20
0.0
 30
0.0
  9
$EXTMIN
 10
0.0
 20
0.0
 30
0.0
  9
$EXTMAX
 10
0.0
 20
0.0
 30
0.0
  0
ENDSEC
  0
SECTION
  2
TABLES
  0
TABLE
  2
VPORT
 70
0
  0
ENDTAB
  0
TABLE
  2
LTYPE
 70
1
  0
LTYPE
  2
CONTINUOUS
 70
0
  3
Solid line
 72
65
 73
0
 40
0.0
  0
ENDTAB
  0
TABLE
  2
LAYER
 70
1
  0
LAYER
  2
0
 70
64
 62
7
  6
continuous
  0
ENDTAB
  0
TABLE
  2
STYLE
 70
1
  0
STYLE
  2
STANDARD
 70
0
 40
0
 41
1.0
 50
0.0
 71
0
 42
1
 3
ARIAL.TTF
 4

  0
ENDTAB
  0
TABLE
  2
VIEW
 70
0
  0
ENDTAB
  0
ENDSEC
  0
SECTION
  2
BLOCKS
  0
ENDSEC
  0
SECTION
  2
ENTITIES
  0
POLYLINE
  8
0
 62
0
 70
0
 66
1
 10
0.0
 20
0.0
 30
0.0
  0
VERTEX
  8
0
 10
-10.0
 20
13.0
 30
0.0
  0
VERTEX
  8
0
 10
-10.0
 20
12.9
 30
0.0
  0
VERTEX
  8
0
 10
-10.0
 20
12.8
 30
0.0
  0
VERTEX
  8
0
 10
-10.0
 20
12.7
 30
0.0
  0
VERTEX
  8
0
 10
-10.0
 20
12.6
 30
0.0
  0
VERTEX
  8
0
 10
-10.0
 20
12.5
 30
0.0
  0
VERTEX
  8
0
 10
-10.0
 20
12.4
 30
0.0
  0
VERTEX
  8
0
 10
-10.0
 20
12.3
 30
0.0
  0
VERTEX
  8
0
 10
-10.0
 20
12.2
 30
0.0
  0
VERTEX
  8
0
 10
-10.0
 20
12.1
 30
0.0
  0
VERTEX
  8
0
 10
-10.0
 20
12.0
 30
0.0
  0
VERTEX
  8
0
 10
-10.0
 20
11.9
 30
0.0
  0
VERTEX
  8
0
 10
-10.0
 20
11.8
 30
0.0
  0
VERTEX
  8
0
 10
-10.0
 20
11.7
 30
0.0
  0
VERTEX
  8
0
 10
-10.0
 20
11.6
 30
0.0
  0
VERTEX
  8
0
 10
-10.0
 20
11.5
 30
0.0
  0
VERTEX
  8
0
 10
-10.0
 20
11.4
 30
0.0
  0
VERTEX
  8
0
 10
-10.0
 20
11.3
 30
0.0
  0
VERTEX
  8
0
 10
-10.0
 20
11.2
 30
0.0
  0
VERTEX
  8
0
 10
-10.0
 20
11.1
 30
0.0
  0
VERTEX
  8
0
 10
-10.0
 20
11.0
 30
0.0
  0
VERTEX
  8
0
 10
-10.0
 20
10.9
 30
0.0
  0
VERTEX
  8
0
 10
-10.0
 20
10.8
 30
0.0
  0
VERTEX
  8
0
 10
-10.0
 20
10.7
 30
0.0
  0
VERTEX
  8
0
 10
-10.0
 20
10.6
 30
0.0
  0
VERTEX
  8
0
 10
-10.0
 20
10.5
 30
0.0
  0
VERTEX
  8
0
 10
-10.0
 20
10.4
 30
0.0
  0
VERTEX
  8
0
 10
-10.0
 20
10.3
 30
0.0
  0
VERTEX
  8
0
 10
-10.0
 20
10.2
 30
0.0
  0
VERTEX
  8
0
 10
-10.0
 20
10.1
 30
0.0
  0
VERTEX
  8
0
 10
-10.0
 20
10.0
 30
0.0
  0
VERTEX
  8
0
 10
-10.0
 20
9.9
 30
0.0
  0
VERTEX
  8
0
 10
-10.0
 20
9.8
 30
0.0
  0
VERTEX
  8
0
 10
-10.0
 20
9.7
 30
0.0
  0
VERTEX
  8
0
 10
-10.0
 20
9.6
 30
0.0
  0
VERTEX
  8
0
 10
-10.0
 20
9.5
 30
0.0
  0
VERTEX
  8
0
 10
-10.0
 20
9.4
 30
0.0
  0
VERTEX
  8
0
 10
-10.0
 20
9.3
 30
0.0
  0
VERTEX
  8
0
 10
-10.0
 20
9.2
 30
0.0
  0
VERTEX
  8
0
 10
-10.0
 20
9.1
 30
0.0
  0
VERTEX
  8
0
 10
-10.0
 20
9.0
 30
0.0
  0
VERTEX
  8
0
 10
-10.0
 20
8.9
 30
0.0
  0
VERTEX
  8
0
 10
-10.0
 20
8.8
 30
0.0
  0
VERTEX
  8
0
 10
-10.0
 20
8.7
 30
0.0
  0
VERTEX
  8
0
 10
-10.0
 20
8.6
 30
0.0
  0
VERTEX
  8
0
 10
-10.0
 20
8.5
 30
0.0
  0
VERTEX
  8
0
 10
-10.0
 20
8.4
 30
0.0
  0
VERTEX
  8
0
 10
-10.0
 20
8.3
 30
0.0
  0
VERTEX
  8
0
 10
-10.0
 20
8.2
 30
0.0
  0
VERTEX
  8
0
 10
-10.0
 20
8.1
 30
0.0
  0
VERTEX
  8
0
 10
-10.0
 20
8.0
 30
0.0
  0
VERTEX
  8
0
 10
-10.0
 20
7.9
 30
0.0
  0
VERTEX
  8
0
 10
-10.0
 20
7.8
 30
0.0
  0
VERTEX
  8
0
 10
-10.0
 20
7.7
 30
0.0
  0
VERTEX
  8
0
 10
-10.0
 20
7.6
 30
0.0
  0
VERTEX
  8
0
 10
-10.0
 20
7.5
 30
0.0
  0
VERTEX
  8
0
 10
-10.0
 20
7.4
 30
0.0
  0
VERTEX
  8
0
 10
-10.0
 20
7.3
 30
0.0
  0
VERTEX
  8
0
 10
-10.0
 20
7.2
 30
0.0
  0
VERTEX
  8
0
 10
-10.0
 20
7.1
 30
0.0
  0
VERTEX
  8
0
 10
-10.0
 20
7.0
 30
0.0
  0
VERTEX
  8
0
 10
-10.0
 20
6.9
 30
0.0
  0
VERTEX
  8
0
 10
-10.0
 20
6.8
 30
0.0
  0
VERTEX
  8
0
 10
-10.0
 20
6.7
 30
0.0
  0
VERTEX
  8
0
 10
-10.0
 20
6.6
 30
0.0
  0
VERTEX
  8
0
 10
-10.0
 20
6.5
 30
0.0
  0
VERTEX
  8
0
 10
-10.0
 20
6.4
 30
0.0
  0
VERTEX
  8
0
 10
-10.0
 20
6.3
 30
0.0
  0
VERTEX
  8
0
 10
-10.0
 20
6.2
 30
0.0
  0
VERTEX
  8
0
 10
-10.0
 20
6.1
 30
0.0
  0
VERTEX
  8
0
 10
-10.0
 20
6.0
 30
0.0
  0
VERTEX
  8
0
 10
-10.0
 20
5.9
 30
0.0
  0
VERTEX
  8
0
 10
-10.0
 20
5.8
 30
0.0
  0
VERTEX
  8
0
 10
-10.0
 20
5.7
 30
0.0
  0
VERTEX
  8
0
 10
-10.0
 20
5.6
 30
0.0
  0
VERTEX
  8
0
 10
-10.0
 20
5.5
 30
0.0
  0
VERTEX
  8
0
 10
-10.0
 20
5.4
 30
0.0
  0
VERTEX
  8
0
 10
-10.0
 20
5.3
 30
0.0
  0
VERTEX
  8
0
 10
-10.0
 20
5.2
 30
0.0
  0
VERTEX
  8
0
 10
-10.0
 20
5.1
 30
0.0
  0
VERTEX
  8
0
 10
-10.0
 20
5.0
 30
0.0
  0
VERTEX
  8
0
 10
-10.0
 20
4.9
 30
0.0
  0
VERTEX
  8
0
 10
-10.0
 20
4.8
 30
0.0
  0
VERTEX
  8
0
 10
-10.0
 20
4.7
 30
0.0
  0
VERTEX
  8
0
 10
-10.0
 20
4.6
 30
0.0
  0
VERTEX
  8
0
 10
-10.0
 20
4.5
 30
0.0
  0
VERTEX
  8
0
 10
-10.0
 20
4.4
 30
0.0
  0
VERTEX
  8
0
 10
-10.0
 20
4.3
 30
0.0
  0
VERTEX
  8
0
 10
-10.0
 20
4.2
 30
0.0
  0
VERTEX
  8
0
 10
-10.0
 20
4.1
 30
0.0
  0
VERTEX
  8
0
 10
-10.0
 20
4.0
 30
0.0
  0
VERTEX
  8
0
 10
-10.0
 20
3.9
 30
0.0
  0
VERTEX
  8
0
 10
-10.0
 20
3.8
 30
0.0
  0
VERTEX
  8
0
 10
-10.0
 20
3.7
 30
0.0
  0
VERTEX
  8
0
 10
-10.0
 20
3.6
 30
0.0
  0
VERTEX
  8
0
 10
-10.0
 20
3.5
 30
0.0
  0
VERTEX
  8
0
 10
-10.0
 20
3.4
 30
0.0
  0
VERTEX
  8
0
 10
-10.0
 20
3.3
 30
0.0
  0
VERTEX
  8
0
 10
-10.0
 20
3.2
 30
0.0
  0
VERTEX
  8
0
 10
-10.0
 20
3.1
 30
0.0
  0
VERTEX
  8
0
 10
-10.0
 20
3.0
 30
0.0
  0
VERTEX
  8
0
 10
-10.0
 20
2.9
 30
0.0
  0
VERTEX
  8
0
 10
-10.0
 20
2.8
 30
0.0
  0
VERTEX
  8
0
 10
-10.0
 20
2.7
 30
0.0
  0
VERTEX
  8
0
 10
-10.0
 20
2.6
 30
0.0
  0
VERTEX
  8
0
 10
-10.0
 20
2.5
 30
0.0
  0
VERTEX
  8
0
 10
-10.0
 20
2.4
 30
0.0
  0
VERTEX
  8
0
 10
-10.0
 20
2.3
 30
0.0
  0
VERTEX
  8
0
 10
-10.0
 20
2.2
 30
0.0
  0
VERTEX
  8
0
 10
-10.0
 20
2.1
 30
0.0
  0
VERTEX
  8
0
 10
-10.0
 20
2.0
 30
0.0
  0
VERTEX
  8
0
 10
-10.0
 20
1.9
 30
0.0
  0
VERTEX
  8
0
 10
-10.0
 20
1.8
 30
0.0
  0
VERTEX
  8
0
 10
-10.0
 20
1.7
 30
0.0
  0
VERTEX
  8
0
 10
-10.0
 20
1.6
 30
0.0
  0
VERTEX
  8
0
 10
-10.0
 20
1.5
 30
0.0
  0
VERTEX
  8
0
 10
-10.0
 20
1.4
 30
0.0
  0
VERTEX
  8
0
 10
-10.0
 20
1.3
 30
0.0
  0
VERTEX
  8
0
 10
-10.0
 20
1.2
 30
0.0
  0
VERTEX
  8
0
 10
-10.0
 20
1.1
 30
0.0
  0
VERTEX
  8
0
 10
-10.0
 20
1.0
 30
0.0
  0
VERTEX
  8
0
 10
-10.0
 20
0.9
 30
0.0
  0
VERTEX
  8
0
 10
-10.0
 20
0.8
 30
0.0
  0
VERTEX
  8
0
 10
-10.0
 20
0.7
 30
0.0
  0
VERTEX
  8
0
 10
-10.0
 20
0.6
 30
0.0
  0
VERTEX
  8
0
 10
-10.0
 20
0.5
 30
0.0
  0
VERTEX
  8
0
 10
-10.0
 20
0.4
 30
0.0
  0
VERTEX
  8
0
 10
-10.0
 20
0.3
 30
0.0
  0
VERTEX
  8
0
 10
-10.0
 20
0.2
 30
0.0
  0
VERTEX
  8
0
 10
-10.0
 20
0.1
 30
0.0
  0
VERTEX
  8
0
 10
-10.0
 20
0.0
 30
0.0
  0
SEQEND
  8
0
  0
POLYLINE
  8
0
 62
0
 70
0
 66
1
 10
0.0
 20
0.0
 30
0.0
  0
VERTEX
  8
0
 10
10.0
 20
0.0
 30
0.0
  0
VERTEX
  8
0
 10
10.0
 20
0.1
 30
0.0
  0
VERTEX
  8
0
 10
10.0
 20
0.2
 30
0.0
  0
VERTEX
  8
0
 10
10.0
 20
0.3
 30
0.0
  0
VERTEX
  8
0
 10
10.0
 20
0.4
 30
0.0
  0
VERTEX
  8
0
 10
10.0
 20
0.5
 30
0.0
  0
VERTEX
  8
0
 10
10.0
 20
0.6
 30
0.0
  0
VERTEX
  8
0
 10
10.0
 20
0.7
 30
0.0
  0
VERTEX
  8
0
 10
10.0
 20
0.8
 30
0.0
  0
VERTEX
  8
0
 10
10.0
 20
0.9
 30
0.0
  0
VERTEX
  8
0
 10
10.0
 20
1.0
 30
0.0
  0
VERTEX
  8
0
 10
10.0
 20
1.1
 30
0.0
  0
VERTEX
  8
0
 10
10.0
 20
1.2
 30
0.0
  0
VERTEX
  8
0
 10
10.0
 20
1.3
 30
0.0
  0
VERTEX
  8
0
 10
10.0
 20
1.4
 30
0.0
  0
VERTEX
  8
0
 10
10.0
 20
1.5
 30
0.0
  0
VERTEX
  8
0
 10
10.0
 20
1.6
 30
0.0
  0
VERTEX
  8
0
 10
10.0
 20
1.7
 30
0.0
  0
VERTEX
  8
0
 10
10.0
 20
1.8
 30
0.0
  0
VERTEX
  8
0
 10
10.0
 20
1.9
 30
0.0
  0
VERTEX
  8
0
 10
10.0
 20
2.0
 30
0.0
  0
VERTEX
  8
0
 10
10.0
 20
2.1
 30
0.0
  0
VERTEX
  8
0
 10
10.0
 20
2.2
 30
0.0
  0
VERTEX
  8
0
 10
10.0
 20
2.3
 30
0.0
  0
VERTEX
  8
0
 10
10.0
 20
2.4
 30
0.0
  0
VERTEX
  8
0
 10
10.0
 20
2.5
 30
0.0
  0
VERTEX
  8
0
 10
10.0
 20
2.6
 30
0.0
  0
VERTEX
  8
0
 10
10.0
 20
2.7
 30
0.0
  0
VERTEX
  8
0
 10
10.0
 20
2.8
 30
0.0
  0
VERTEX
  8
0
 10
10.0
 20
2.9
 30
0.0
  0
VERTEX
  8
0
 10
10.0
 20
3.0
 30
0.0
  0
VERTEX
  8
0
 10
10.0
 20
3.1
 30
0.0
  0
VERTEX
  8
0
 10
10.0
 20
3.2
 30
0.0
  0
VERTEX
  8
0
 10
10.0
 20
3.3
 30
0.0
  0
VERTEX
  8
0
 10
10.0
 20
3.4
 30
0.0
  0
VERTEX
  8
0
 10
10.0
 20
3.5
 30
0.0
  0
VERTEX
  8
0
 10
10.0
 20
3.6
 30
0.0
  0
VERTEX
  8
0
 10
10.0
 20
3.7
 30
0.0
  0
VERTEX
  8
0
 10
10.0
 20
3.8
 30
0.0
  0
VERTEX
  8
0
 10
10.0
 20
3.9
 30
0.0
  0
VERTEX
  8
0
 10
10.0
 20
4.0
 30
0.0
  0
VERTEX
  8
0
 10
10.0
 20
4.1
 30
0.0
  0
VERTEX
  8
0
 10
10.0
 20
4.2
 30
0.0
  0
VERTEX
  8
0
 10
10.0
 20
4.3
 30
0.0
  0
VERTEX
  8
0
 10
10.0
 20
4.4
 30
0.0
  0
VERTEX
  8
0
 10
10.0
 20
4.5
 30
0.0
  0
VERTEX
  8
0
 10
10.0
 20
4.6
 30
0.0
  0
VERTEX
  8
0
 10
10.0
 20
4.7
 30
0.0
  0
VERTEX
  8
0
 10
10.0
 20
4.8
 30
0.0
  0
VERTEX
  8
0
 10
10.0
 20
4.9
 30
0.0
  0
VERTEX
  8
0
 10
10.0
 20
5.0
 30
0.0
  0
VERTEX
  8
0
 10
10.0
 20
5.1
 30
0.0
  0
VERTEX
  8
0
 10
10.0
 20
5.2
 30
0.0
  0
VERTEX
  8
0
 10
10.0
 20
5.3
 30
0.0
  0
VERTEX
  8
0
 10
10.0
 20
5.4
 30
0.0
  0
VERTEX
  8
0
 10
10.0
 20
5.5
 30
0.0
  0
VERTEX
  8
0
 10
10.0
 20
5.6
 30
0.0
  0
VERTEX
  8
0
 10
10.0
 20
5.7
 30
0.0
  0
VERTEX
  8
0
 10
10.0
 20
5.8
 30
0.0
  0
VERTEX
  8
0
 10
10.0
 20
5.9
 30
0.0
  0
VERTEX
  8
0
 10
10.0
 20
6.0
 30
0.0
  0
VERTEX
  8
0
 10
10.0
 20
6.1
 30
0.0
  0
VERTEX
  8
0
 10
10.0
 20
6.2
 30
0.0
  0
VERTEX
  8
0
 10
10.0
 20
6.3
 30
0.0
  0
VERTEX
  8
0
 10
10.0
 20
6.4
 30
0.0
  0
VERTEX
  8
0
 10
10.0
 20
6.5
 30
0.0
  0
VERTEX
  8
0
 10
10.0
 20
6.6
 30
0.0
  0
VERTEX
  8
0
 10
10.0
 20
6.7
 30
0.0
  0
VERTEX
  8
0
 10
10.0
 20
6.8
 30
0.0
  0
VERTEX
  8
0
 10
10.0
 20
6.9
 30
0.0
  0
VERTEX
  8
0
 10
10.0
 20
7.0
 30
0.0
  0
VERTEX
  8
0
 10
10.0
 20
7.1
 30
0.0
  0
VERTEX
  8
0
 10
10.0
 20
7.2
 30
0.0
  0
VERTEX
  8
0
 10
10.0
 20
7.3
 30
0.0
  0
VERTEX
  8
0
 10
10.0
 20
7.4
 30
0.0
  0
VERTEX
  8
0
 10
10.0
 20
7.5
 30
0.0
  0
VERTEX
  8
0
 10
10.0
 20
7.6
 30
0.0
  0
VERTEX
  8
0
 10
10.0
 20
7.7
 30
0.0
  0
VERTEX
  8
0
 10
10.0
 20
7.8
 30
0.0
  0
VERTEX
  8
0
 10
10.0
 20
7.9
 30
0.0
  0
VERTEX
  8
0
 10
10.0
 20
8.0
 30
0.0
  0
VERTEX
  8
0
 10
10.0
 20
8.1
 30
0.0
  0
VERTEX
  8
0
 10
10.0
 20
8.2
 30
0.0
  0
VERTEX
  8
0
 10
10.0
 20
8.3
 30
0.0
  0
VERTEX
  8
0
 10
10.0
 20
8.4
 30
0.0
  0
VERTEX
  8
0
 10
10.0
 20
8.5
 30
0.0
  0
VERTEX
  8
0
 10
10.0
 20
8.6
 30
0.0
  0
VERTEX
  8
0
 10
10.0
 20
8.7
 30
0.0
  0
VERTEX
  8
0
 10
10.0
 20
8.8
 30
0.0
  0
VERTEX
  8
0
 10
10.0
 20
8.9
 30
0.0
  0
VERTEX
  8
0
 10
10.0
 20
9.0
 30
0.0
  0
VERTEX
  8
0
 10
10.0
 20
9.1
 30
0.0
  0
VERTEX
  8
0
 10
10.0
 20
9.2
 30
0.0
  0
VERTEX
  8
0
 10
10.0
 20
9.3
 30
0.0
  0
VERTEX
  8
0
 10
10.0
 20
9.4
 30
0.0
  0
VERTEX
  8
0
 10
10.0
 20
9.5
 30
0.0
  0
VERTEX
  8
0
 10
10.0
 20
9.6
 30
0.0
  0
VERTEX
  8
0
 10
10.0
 20
9.7
 30
0.0
  0
VERTEX
  8
0
 10
10.0
 20
9.8
 30
0.0
  0
VERTEX
  8
0
 10
10.0
 20
9.9
 30
0.0
  0
VERTEX
  8
0
 10
10.0
 20
10.0
 30
0.0
  0
VERTEX
  8
0
 10
10.0
 20
10.1
 30
0.0
  0
VERTEX
  8
0
 10
10.0
 20
10.2
 30
0.0
  0
VERTEX
  8
0
 10
10.0
 20
10.3
 30
0.0
  0
VERTEX
  8
0
 10
10.0
 20
10.4
 30
0.0
  0
VERTEX
  8
0
 10
10.0
 20
10.5
 30
0.0
  0
VERTEX
  8
0
 10
10.0
 20
10.6
 30
0.0
  0
VERTEX
  8
0
 10
10.0
 20
10.7
 30
0.0
  0
VERTEX
  8
0
 10
10.0
 20
10.8
 30
0.0
  0
VERTEX
  8
0
 10
10.0
 20
10.9
 30
0.0
  0
VERTEX
  8
0
 10
10.0
 20
11.0
 30
0.0
  0
VERTEX
  8
0
 10
10.0
 20
11.1
 30
0.0
  0
VERTEX
  8
0
 10
10.0
 20
11.2
 30
0.0
  0
VERTEX
  8
0
 10
10.0
 20
11.3
 30
0.0
  0
VERTEX
  8
0
 10
10.0
 20
11.4
 30
0.0
  0
VERTEX
  8
0
 10
10.0
 20
11.5
 30
0.0
  0
VERTEX
  8
0
 10
10.0
 20
11.6
 30
0.0
  0
VERTEX
  8
0
 10
10.0
 20
11.7
 30
0.0
  0
VERTEX
  8
0
 10
10.0
 20
11.8
 30
0.0
  0
VERTEX
  8
0
 10
10.0
 20
11.9
 30
0.0
  0
VERTEX
  8
0
 10
10.0
 20
12.0
 30
0.0
  0
VERTEX
  8
0
 10
10.0
 20
12.1
 30
0.0
  0
VERTEX
  8
0
 10
10.0
 20
12.2
 30
0.0
  0
VERTEX
  8
0
 10
10.0
 20
12.3
 30
0.0
  0
VERTEX
  8
0
 10
10.0
 20
12.4
 30
0.0
  0
VERTEX
  8
0
 10
10.0
 20
12.5
 30
0.0
  0
VERTEX
  8
0
 10
10.0
 20
12.6
 30
0.0
  0
VERTEX
  8
0
 10
10.0
 20
12.7
 30
0.0
  0
VERTEX
  8
0
 10
10.0
 20
12.8
 30
0.0
  0
VERTEX
  8
0
 10
10.0
 20
12.9
 30
0.0
  0
VERTEX
  8
0
 10
10.0
 20
13.0
 30
0.0
  0
SEQEND
  8
0
  0
POLYLINE
  8
0
 62
0
 70
0
 66
1
 10
0.0
 20
0.0
 30
0.0
  0
VERTEX
  8
0
 10
-10.0
 20
0.0
 30
0.0
  0
VERTEX
  8
0
 10
-9.9
 20
0.0
 30
0.0
  0
VERTEX
  8
0
 10
-9.8
 20
0.0
 30
0.0
  0
VERTEX
  8
0
 10
-9.7
 20
0.0
 30
0.0
  0
VERTEX
  8
0
 10
-9.6
 20
0.0
 30
0.0
  0
VERTEX
  8
0
 10
-9.5
 20
0.0
 30
0.0
  0
VERTEX
  8
0
 10
-9.4
 20
0.0
 30
0.0
  0
VERTEX
  8
0
 10
-9.3
 20
0.0
 30
0.0
  0
VERTEX
  8
0
 10
-9.2
 20
0.0
 30
0.0
  0
VERTEX
  8
0
 10
-9.1
 20
0.0
 30
0.0
  0
VERTEX
  8
0
 10
-9.0
 20
0.0
 30
0.0
  0
VERTEX
  8
0
 10
-8.9
 20
0.0
 30
0.0
  0
VERTEX
  8
0
 10
-8.8
 20
0.0
 30
0.0
  0
VERTEX
  8
0
 10
-8.7
 20
0.0
 30
0.0
  0
VERTEX
  8
0
 10
-8.6
 20
0.0
 30
0.0
  0
VERTEX
  8
0
 10
-8.5
 20
0.0
 30
0.0
  0
VERTEX
  8
0
 10
-8.4
 20
0.0
 30
0.0
  0
VERTEX
  8
0
 10
-8.3
 20
0.0
 30
0.0
  0
VERTEX
  8
0
 10
-8.2
 20
0.0
 30
0.0
  0
VERTEX
  8
0
 10
-8.1
 20
0.0
 30
0.0
  0
VERTEX
  8
0
 10
-8.0
 20
0.0
 30
0.0
  0
VERTEX
  8
0
 10
-7.9
 20
0.0
 30
0.0
  0
VERTEX
  8
0
 10
-7.8
 20
0.0
 30
0.0
  0
VERTEX
  8
0
 10
-7.7
 20
0.0
 30
0.0
  0
VERTEX
  8
0
 10
-7.6
 20
0.0
 30
0.0
  0
VERTEX
  8
0
 10
-7.5
 20
0.0
 30
0.0
  0
VERTEX
  8
0
 10
-7.4
 20
0.0
 30
0.0
  0
VERTEX
  8
0
 10
-7.3
 20
0.0
 30
0.0
  0
VERTEX
  8
0
 10
-7.2
 20
0.0
 30
0.0
  0
VERTEX
  8
0
 10
-7.1
 20
0.0
 30
0.0
  0
VERTEX
  8
0
 10
-7.0
 20
0.0
 30
0.0
  0
VERTEX
  8
0
 10
-6.9
 20
0.0
 30
0.0
  0
VERTEX
  8
0
 10
-6.8
 20
0.0
 30
0.0
  0
VERTEX
  8
0
 10
-6.7
 20
0.0
 30
0.0
  0
VERTEX
  8
0
 10
-6.6
 20
0.0
 30
0.0
  0
VERTEX
  8
0
 10
-6.5
 20
0.0
 30
0.0
  0
VERTEX
  8
0
 10
-6.4
 20
0.0
 30
0.0
  0
VERTEX
  8
0
 10
-6.3
 20
0.0
 30
0.0
  0
VERTEX
  8
0
 10
-6.2
 20
0.0
 30
0.0
  0
VERTEX
  8
0
 10
-6.1
 20
0.0
 30
0.0
  0
VERTEX
  8
0
 10
-6.0
 20
0.0
 30
0.0
  0
VERTEX
  8
0
 10
-5.9
 20
0.0
 30
0.0
  0
VERTEX
  8
0
 10
-5.8
 20
0.0
 30
0.0
  0
VERTEX
  8
0
 10
-5.7
 20
0.0
 30
0.0
  0
VERTEX
  8
0
 10
-5.6
 20
0.0
 30
0.0
  0
VERTEX
  8
0
 10
-5.5
 20
0.0
 30
0.0
  0
VERTEX
  8
0
 10
-5.4
 20
0.0
 30
0.0
  0
VERTEX
  8
0
 10
-5.3
 20
0.0
 30
0.0
  0
VERTEX
  8
0
 10
-5.2
 20
0.0
 30
0.0
  0
VERTEX
  8
0
 10
-5.1
 20
0.0
 30
0.0
  0
VERTEX
  8
0
 10
-5.0
 20
0.0
 30
0.0
  0
VERTEX
  8
0
 10
-4.9
 20
0.0
 30
0.0
  0
VERTEX
  8
0
 10
-4.8
 20
0.0
 30
0.0
  0
VERTEX
  8
0
 10
-4.7
 20
0.0
 30
0.0
  0
VERTEX
  8
0
 10
-4.6
 20
0.0
 30
0.0
  0
VERTEX
  8
0
 10
-4.5
 20
0.0
 30
0.0
  0
VERTEX
  8
0
 10
-4.4
 20
0.0
 30
0.0
  0
VERTEX
  8
0
 10
-4.3
 20
0.0
 30
0.0
  0
VERTEX
  8
0
 10
-4.2
 20
0.0
 30
0.0
  0
VERTEX
  8
0
 10
-4.1
 20
0.0
 30
0.0
  0
VERTEX
  8
0
 10
-4.0
 20
0.0
 30
0.0
  0
VERTEX
  8
0
 10
-3.9
 20
0.0
 30
0.0
  0
VERTEX
  8
0
 10
-3.8
 20
0.0
 30
0.0
  0
VERTEX
  8
0
 10
-3.7
 20
0.0
 30
0.0
  0
VERTEX
  8
0
 10
-3.6
 20
0.0
 30
0.0
  0
VERTEX
  8
0
 10
-3.5
 20
0.0
 30
0.0
  0
VERTEX
  8
0
 10
-3.4
 20
0.0
 30
0.0
  0
VERTEX
  8
0
 10
-3.3
 20
0.0
 30
0.0
  0
VERTEX
  8
0
 10
-3.2
 20
0.0
 30
0.0
  0
VERTEX
  8
0
 10
-3.1
 20
0.0
 30
0.0
  0
VERTEX
  8
0
 10
-3.0
 20
0.0
 30
0.0
  0
VERTEX
  8
0
 10
-2.9
 20
0.0
 30
0.0
  0
VERTEX
  8
0
 10
-2.8
 20
0.0
 30
0.0
  0
VERTEX
  8
0
 10
-2.7
 20
0.0
 30
0.0
  0
VERTEX
  8
0
 10
-2.6
 20
0.0
 30
0.0
  0
VERTEX
  8
0
 10
-2.5
 20
0.0
 30
0.0
  0
VERTEX
  8
0
 10
-2.4
 20
0.0
 30
0.0
  0
VERTEX
  8
0
 10
-2.3
 20
0.0
 30
0.0
  0
VERTEX
  8
0
 10
-2.2
 20
0.0
 30
0.0
  0
VERTEX
  8
0
 10
-2.1
 20
0.0
 30
0.0
  0
VERTEX
  8
0
 10
-2.0
 20
0.0
 30
0.0
  0
VERTEX
  8
0
 10
-1.9
 20
0.0
 30
0.0
  0
VERTEX
  8
0
 10
-1.8
 20
0.0
 30
0.0
  0
VERTEX
  8
0
 10
-1.7
 20
0.0
 30
0.0
  0
VERTEX
  8
0
 10
-1.6
 20
0.0
 30
0.0
  0
VERTEX
  8
0
 10
-1.5
 20
0.0
 30
0.0
  0
VERTEX
  8
0
 10
-1.4
 20
0.0
 30
0.0
  0
VERTEX
  8
0
 10
-1.3
 20
0.0
 30
0.0
  0
VERTEX
  8
0
 10
-1.2
 20
0.0
 30
0.0
  0
VERTEX
  8
0
 10
-1.1
 20
0.0
 30
0.0
  0
VERTEX
  8
0
 10
-1.0
 20
0.0
 30
0.0
  0
VERTEX
  8
0
 10
-0.9
 20
0.0
 30
0.0
  0
VERTEX
  8
0
 10
-0.8
 20
0.0
 30
0.0
  0
VERTEX
  8
0
 10
-0.7
 20
0.0
 30
0.0
  0
VERTEX
  8
0
 10
-0.6
 20
0.0
 30
0.0
  0
VERTEX
  8
0
 10
-0.5
 20
0.0
 30
0.0
  0
VERTEX
  8
0
 10
-0.4
 20
0.0
 30
0.0
  0
VERTEX
  8
0
 10
-0.3
 20
0.0
 30
0.0
  0
VERTEX
  8
0
 10
-0.2
 20
0.0
 30
0.0
  0
VERTEX
  8
0
 10
-0.1
 20
0.0
 30
0.0
  0
VERTEX
  8
0
 10
0.0
 20
0.0
 30
0.0
  0
VERTEX
  8
0
 10
0.1
 20
0.0
 30
0.0
  0
VERTEX
  8
0
 10
0.2
 20
0.0
 30
0.0
  0
VERTEX
  8
0
 10
0.3
 20
0.0
 30
0.0
  0
VERTEX
  8
0
 10
0.4
 20
0.0
 30
0.0
  0
VERTEX
  8
0
 10
0.5
 20
0.0
 30
0.0
  0
VERTEX
  8
0
 10
0.6
 20
0.0
 30
0.0
  0
VERTEX
  8
0
 10
0.7
 20
0.0
 30
0.0
  0
VERTEX
  8
0
 10
0.8
 20
0.0
 30
0.0
  0
VERTEX
  8
0
 10
0.9
 20
0.0
 30
0.0
  0
VERTEX
  8
0
 10
1.0
 20
0.0
 30
0.0
  0
VERTEX
  8
0
 10
1.1
 20
0.0
 30
0.0
  0
VERTEX
  8
0
 10
1.2
 20
0.0
 30
0.0
  0
VERTEX
  8
0
 10
1.3
 20
0.0
 30
0.0
  0
VERTEX
  8
0
 10
1.4
 20
0.0
 30
0.0
  0
VERTEX
  8
0
 10
1.5
 20
0.0
 30
0.0
  0
VERTEX
  8
0
 10
1.6
 20
0.0
 30
0.0
  0
VERTEX
  8
0
 10
1.7
 20
0.0
 30
0.0
  0
VERTEX
  8
0
 10
1.8
 20
0.0
 30
0.0
  0
VERTEX
  8
0
 10
1.9
 20
0.0
 30
0.0
  0
VERTEX
  8
0
 10
2.0
 20
0.0
 30
0.0
  0
VERTEX
  8
0
 10
2.1
 20
0.0
 30
0.0
  0
VERTEX
  8
0
 10
2.2
 20
0.0
 30
0.0
  0
VERTEX
  8
0
 10
2.3
 20
0.0
 30
0.0
  0
VERTEX
  8
0
 10
2.4
 20
0.0
 30
0.0
  0
VERTEX
  8
0
 10
2.5
 20
0.0
 30
0.0
  0
VERTEX
  8
0
 10
2.6
 20
0.0
 30
0.0
  0
VERTEX
  8
0
 10
2.7
 20
0.0
 30
0.0
  0
VERTEX
  8
0
 10
2.8
 20
0.0
 30
0.0
  0
VERTEX
  8
0
 10
2.9
 20
0.0
 30
0.0
  0
VERTEX
  8
0
 10
3.0
 20
0.0
 30
0.0
  0
VERTEX
  8
0
 10
3.1
 20
0.0
 30
0.0
  0
VERTEX
  8
0
 10
3.2
 20
0.0
 30
0.0
  0
VERTEX
  8
0
 10
3.3
 20
0.0
 30
0.0
  0
VERTEX
  8
0
 10
3.4
 20
0.0
 30
0.0
  0
VERTEX
  8
0
 10
3.5
 20
0.0
 30
0.0
  0
VERTEX
  8
0
 10
3.6
 20
0.0
 30
0.0
  0
VERTEX
  8
0
 10
3.7
 20
0.0
 30
0.0
  0
VERTEX
  8
0
 10
3.8
 20
0.0
 30
0.0
  0
VERTEX
  8
0
 10
3.9
 20
0.0
 30
0.0
  0
VERTEX
  8
0
 10
4.0
 20
0.0
 30
0.0
  0
VERTEX
  8
0
 10
4.1
 20
0.0
 30
0.0
  0
VERTEX
  8
0
 10
4.2
 20
0.0
 30
0.0
  0
VERTEX
  8
0
 10
4.3
 20
0.0
 30
0.0
  0
VERTEX
  8
0
 10
4.4
 20
0.0
 30
0.0
  0
VERTEX
  8
0
 10
4.5
 20
0.0
 30
0.0
  0
VERTEX
  8
0
 10
4.6
 20
0.0
 30
0.0
  0
VERTEX
  8
0
 10
4.7
 20
0.0
 30
0.0
  0
VERTEX
  8
0
 10
4.8
 20
0.0
 30
0.0
  0
VERTEX
  8
0
 10
4.9
 20
0.0
 30
0.0
  0
VERTEX
  8
0
 10
5.0
 20
0.0
 30
0.0
  0
VERTEX
  8
0
 10
5.1
 20
0.0
 30
0.0
  0
VERTEX
  8
0
 10
5.2
 20
0.0
 30
0.0
  0
VERTEX
  8
0
 10
5.3
 20
0.0
 30
0.0
  0
VERTEX
  8
0
 10
5.4
 20
0.0
 30
0.0
  0
VERTEX
  8
0
 10
5.5
 20
0.0
 30
0.0
  0
VERTEX
  8
0
 10
5.6
 20
0.0
 30
0.0
  0
VERTEX
  8
0
 10
5.7
 20
0.0
 30
0.0
  0
VERTEX
  8
0
 10
5.8
 20
0.0
 30
0.0
  0
VERTEX
  8
0
 10
5.9
 20
0.0
 30
0.0
  0
VERTEX
  8
0
 10
6.0
 20
0.0
 30
0.0
  0
VERTEX
  8
0
 10
6.1
 20
0.0
 30
0.0
  0
VERTEX
  8
0
 10
6.2
 20
0.0
 30
0.0
  0
VERTEX
  8
0
 10
6.3
 20
0.0
 30
0.0
  0
VERTEX
  8
0
 10
6.4
 20
0.0
 30
0.0
  0
VERTEX
  8
0
 10
6.5
 20
0.0
 30
0.0
  0
VERTEX
  8
0
 10
6.6
 20
0.0
 30
0.0
  0
VERTEX
  8
0
 10
6.7
 20
0.0
 30
0.0
  0
VERTEX
  8
0
 10
6.8
 20
0.0
 30
0.0
  0
VERTEX
  8
0
 10
6.9
 20
0.0
 30
0.0
  0
VERTEX
  8
0
 10
7.0
 20
0.0
 30
0.0
  0
VERTEX
  8
0
 10
7.1
 20
0.0
 30
0.0
  0
VERTEX
  8
0
 10
7.2
 20
0.0
 30
0.0
  0
VERTEX
  8
0
 10
7.3
 20
0.0
 30
0.0
  0
VERTEX
  8
0
 10
7.4
 20
0.0
 30
0.0
  0
VERTEX
  8
0
 10
7.5
 20
0.0
 30
0.0
  0
VERTEX
  8
0
 10
7.6
 20
0.0
 30
0.0
  0
VERTEX
  8
0
 10
7.7
 20
0.0
 30
0.0
  0
VERTEX
  8
0
 10
7.8
 20
0.0
 30
0.0
  0
VERTEX
  8
0
 10
7.9
 20
0.0
 30
0.0
  0
VERTEX
  8
0
 10
8.0
 20
0.0
 30
0.0
  0
VERTEX
  8
0
 10
8.1
 20
0.0
 30
0.0
  0
VERTEX
  8
0
 10
8.2
 20
0.0
 30
0.0
  0
VERTEX
  8
0
 10
8.3
 20
0.0
 30
0.0
  0
VERTEX
  8
0
 10
8.4
 20
0.0
 30
0.0
  0
VERTEX
  8
0
 10
8.5
 20
0.0
 30
0.0
  0
VERTEX
  8
0
 10
8.6
 20
0.0
 30
0.0
  0
VERTEX
  8
0
 10
8.7
 20
0.0
 30
0.0
  0
VERTEX
  8
0
 10
8.8
 20
0.0
 30
0.0
  0
VERTEX
  8
0
 10
8.9
 20
0.0
 30
0.0
  0
VERTEX
  8
0
 10
9.0
 20
0.0
 30
0.0
  0
VERTEX
  8
0
 10
9.1
 20
0.0
 30
0.0
  0
VERTEX
  8
0
 10
9.2
 20
0.0
 30
0.0
  0
VERTEX
  8
0
 10
9.3
 20
0.0
 30
0.0
  0
VERTEX
  8
0
 10
9.4
 20
0.0
 30
0.0
  0
VERTEX
  8
0
 10
9.5
 20
0.0
 30
0.0
  0
VERTEX
  8
0
 10
9.6
 20
0.0
 30
0.0
  0
VERTEX
  8
0
 10
9.7
 20
0.0
 30
0.0
  0
VERTEX
  8
0
 10
9.8
 20
0.0
 30
0.0
  0
VERTEX
  8
0
 10
9.9
 20
0.0
 30
0.0
  0
VERTEX
  8
0
 10
10.0
 20
0.0
 30
0.0
  0
SEQEND
  8
0
  0
POLYLINE
  8
0
 62
0
 70
0
 66
1
 10
0.0
 20
0.0
 30
0.0
  0
VERTEX
  8
0
 10
10.0
 20
13.0
 30
0.0
  0
VERTEX
  8
0
 10
9.9
 20
13.0
 30
0.0
  0
VERTEX
  8
0
 10
9.8
 20
13.0
 30
0.0
  0
VERTEX
  8
0
 10
9.7
 20
13.0
 30
0.0
  0
VERTEX
  8
0
 10
9.6
 20
13.0
 30
0.0
  0
VERTEX
  8
0
 10
9.5
 20
13.0
 30
0.0
  0
VERTEX
  8
0
 10
9.4
 20
13.0
 30
0.0
  0
VERTEX
  8
0
 10
9.3
 20
13.0
 30
0.0
  0
VERTEX
  8
0
 10
9.2
 20
13.0
 30
0.0
  0
VERTEX
  8
0
 10
9.1
 20
13.0
 30
0.0
  0
VERTEX
  8
0
 10
9.0
 20
13.0
 30
0.0
  0
VERTEX
  8
0
 10
8.9
 20
13.0
 30
0.0
  0
VERTEX
  8
0
 10
8.8
 20
13.0
 30
0.0
  0
VERTEX
  8
0
 10
8.7
 20
13.0
 30
0.0
  0
VERTEX
  8
0
 10
8.6
 20
13.0
 30
0.0
  0
VERTEX
  8
0
 10
8.5
 20
13.0
 30
0.0
  0
VERTEX
  8
0
 10
8.4
 20
13.0
 30
0.0
  0
VERTEX
  8
0
 10
8.3
 20
13.0
 30
0.0
  0
VERTEX
  8
0
 10
8.2
 20
13.0
 30
0.0
  0
VERTEX
  8
0
 10
8.1
 20
13.0
 30
0.0
  0
VERTEX
  8
0
 10
8.0
 20
13.0
 30
0.0
  0
VERTEX
  8
0
 10
7.9
 20
13.0
 30
0.0
  0
VERTEX
  8
0
 10
7.8
 20
13.0
 30
0.0
  0
VERTEX
  8
0
 10
7.7
 20
13.0
 30
0.0
  0
VERTEX
  8
0
 10
7.6
 20
13.0
 30
0.0
  0
VERTEX
  8
0
 10
7.5
 20
13.0
 30
0.0
  0
VERTEX
  8
0
 10
7.4
 20
13.0
 30
0.0
  0
VERTEX
  8
0
 10
7.3
 20
13.0
 30
0.0
  0
VERTEX
  8
0
 10
7.2
 20
13.0
 30
0.0
  0
VERTEX
  8
0
 10
7.1
 20
13.0
 30
0.0
  0
VERTEX
  8
0
 10
7.0
 20
13.0
 30
0.0
  0
VERTEX
  8
0
 10
6.9
 20
13.0
 30
0.0
  0
VERTEX
  8
0
 10
6.8
 20
13.0
 30
0.0
  0
VERTEX
  8
0
 10
6.7
 20
13.0
 30
0.0
  0
VERTEX
  8
0
 10
6.6
 20
13.0
 30
0.0
  0
VERTEX
  8
0
 10
6.5
 20
13.0
 30
0.0
  0
VERTEX
  8
0
 10
6.4
 20
13.0
 30
0.0
  0
VERTEX
  8
0
 10
6.3
 20
13.0
 30
0.0
  0
VERTEX
  8
0
 10
6.2
 20
13.0
 30
0.0
  0
VERTEX
  8
0
 10
6.1
 20
13.0
 30
0.0
  0
VERTEX
  8
0
 10
6.0
 20
13.0
 30
0.0
  0
VERTEX
  8
0
 10
5.9
 20
13.0
 30
0.0
  0
VERTEX
  8
0
 10
5.8
 20
13.0
 30
0.0
  0
VERTEX
  8
0
 10
5.7
 20
13.0
 30
0.0
  0
VERTEX
  8
0
 10
5.6
 20
13.0
 30
0.0
  0
VERTEX
  8
0
 10
5.5
 20
13.0
 30
0.0
  0
VERTEX
  8
0
 10
5.4
 20
13.0
 30
0.0
  0
VERTEX
  8
0
 10
5.3
 20
13.0
 30
0.0
  0
VERTEX
  8
0
 10
5.2
 20
13.0
 30
0.0
  0
VERTEX
  8
0
 10
5.1
 20
13.0
 30
0.0
  0
VERTEX
  8
0
 10
5.0
 20
13.0
 30
0.0
  0
VERTEX
  8
0
 10
4.9
 20
13.0
 30
0.0
  0
VERTEX
  8
0
 10
4.8
 20
13.0
 30
0.0
  0
VERTEX
  8
0
 10
4.7
 20
13.0
 30
0.0
  0
VERTEX
  8
0
 10
4.6
 20
13.0
 30
0.0
  0
VERTEX
  8
0
 10
4.5
 20
13.0
 30
0.0
  0
VERTEX
  8
0
 10
4.4
 20
13.0
 30
0.0
  0
VERTEX
  8
0
 10
4.3
 20
13.0
 30
0.0
  0
VERTEX
  8
0
 10
4.2
 20
13.0
 30
0.0
  0
VERTEX
  8
0
 10
4.1
 20
13.0
 30
0.0
  0
VERTEX
  8
0
 10
4.0
 20
13.0
 30
0.0
  0
VERTEX
  8
0
 10
3.9
 20
13.0
 30
0.0
  0
VERTEX
  8
0
 10
3.8
 20
13.0
 30
0.0
  0
VERTEX
  8
0
 10
3.7
 20
13.0
 30
0.0
  0
VERTEX
  8
0
 10
3.6
 20
13.0
 30
0.0
  0
VERTEX
  8
0
 10
3.5
 20
13.0
 30
0.0
  0
VERTEX
  8
0
 10
3.4
 20
13.0
 30
0.0
  0
VERTEX
  8
0
 10
3.3
 20
13.0
 30
0.0
  0
VERTEX
  8
0
 10
3.2
 20
13.0
 30
0.0
  0
VERTEX
  8
0
 10
3.1
 20
13.0
 30
0.0
  0
VERTEX
  8
0
 10
3.0
 20
13.0
 30
0.0
  0
VERTEX
  8
0
 10
2.9
 20
13.0
 30
0.0
  0
VERTEX
  8
0
 10
2.8
 20
13.0
 30
0.0
  0
VERTEX
  8
0
 10
2.7
 20
13.0
 30
0.0
  0
VERTEX
  8
0
 10
2.6
 20
13.0
 30
0.0
  0
VERTEX
  8
0
 10
2.5
 20
13.0
 30
0.0
  0
VERTEX
  8
0
 10
2.4
 20
13.0
 30
0.0
  0
VERTEX
  8
0
 10
2.3
 20
13.0
 30
0.0
  0
VERTEX
  8
0
 10
2.2
 20
13.0
 30
0.0
  0
VERTEX
  8
0
 10
2.1
 20
13.0
 30
0.0
  0
VERTEX
  8
0
 10
2.0
 20
13.0
 30
0.0
  0
VERTEX
  8
0
 10
1.9
 20
13.0
 30
0.0
  0
VERTEX
  8
0
 10
1.8
 20
13.0
 30
0.0
  0
VERTEX
  8
0
 10
1.7
 20
13.0
 30
0.0
  0
VERTEX
  8
0
 10
1.6
 20
13.0
 30
0.0
  0
VERTEX
  8
0
 10
1.5
 20
13.0
 30
0.0
  0
VERTEX
  8
0
 10
1.4
 20
13.0
 30
0.0
  0
VERTEX
  8
0
 10
1.3
 20
13.0
 30
0.0
  0
VERTEX
  8
0
 10
1.2
 20
13.0
 30
0.0
  0
VERTEX
  8
0
 10
1.1
 20
13.0
 30
0.0
  0
VERTEX
  8
0
 10
1.0
 20
13.0
 30
0.0
  0
VERTEX
  8
0
 10
0.9
 20
13.0
 30
0.0
  0
VERTEX
  8
0
 10
0.8
 20
13.0
 30
0.0
  0
VERTEX
  8
0
 10
0.7
 20
13.0
 30
0.0
  0
VERTEX
  8
0
 10
0.6
 20
13.0
 30
0.0
  0
VERTEX
  8
0
 10
0.5
 20
13.0
 30
0.0
  0
VERTEX
  8
0
 10
0.4
 20
13.0
 30
0.0
  0
VERTEX
  8
0
 10
0.3
 20
13.0
 30
0.0
  0
VERTEX
  8
0
 10
0.2
 20
13.0
 30
0.0
  0
VERTEX
  8
0
 10
0.1
 20
13.0
 30
0.0
  0
VERTEX
  8
0
 10
0.0
 20
13.0
 30
0.0
  0
VERTEX
  8
0
 10
-0.1
 20
13.0
 30
0.0
  0
VERTEX
  8
0
 10
-0.2
 20
13.0
 30
0.0
  0
VERTEX
  8
0
 10
-0.3
 20
13.0
 30
0.0
  0
VERTEX
  8
0
 10
-0.4
 20
13.0
 30
0.0
  0
VERTEX
  8
0
 10
-0.5
 20
13.0
 30
0.0
  0
VERTEX
  8
0
 10
-0.6
 20
13.0
 30
0.0
  0
VERTEX
  8
0
 10
-0.7
 20
13.0
 30
0.0
  0
VERTEX
  8
0
 10
-0.8
 20
13.0
 30
0.0
  0
VERTEX
  8
0
 10
-0.9
 20
13.0
 30
0.0
  0
VERTEX
  8
0
 10
-1.0
 20
13.0
 30
0.0
  0
VERTEX
  8
0
 10
-1.1
 20
13.0
 30
0.0
  0
VERTEX
  8
0
 10
-1.2
 20
13.0
 30
0.0
  0
VERTEX
  8
0
 10
-1.3
 20
13.0
 30
0.0
  0
VERTEX
  8
0
 10
-1.4
 20
13.0
 30
0.0
  0
VERTEX
  8
0
 10
-1.5
 20
13.0
 30
0.0
  0
VERTEX
  8
0
 10
-1.6
 20
13.0
 30
0.0
  0
VERTEX
  8
0
 10
-1.7
 20
13.0
 30
0.0
  0
VERTEX
  8
0
 10
-1.8
 20
13.0
 30
0.0
  0
VERTEX
  8
0
 10
-1.9
 20
13.0
 30
0.0
  0
VERTEX
  8
0
 10
-2.0
 20
13.0
 30
0.0
  0
VERTEX
  8
0
 10
-2.1
 20
13.0
 30
0.0
  0
VERTEX
  8
0
 10
-2.2
 20
13.0
 30
0.0
  0
VERTEX
  8
0
 10
-2.3
 20
13.0
 30
0.0
  0
VERTEX
  8
0
 10
-2.4
 20
13.0
 30
0.0
  0
VERTEX
  8
0
 10
-2.5
 20
13.0
 30
0.0
  0
VERTEX
  8
0
 10
-2.6
 20
13.0
 30
0.0
  0
VERTEX
  8
0
 10
-2.7
 20
13.0
 30
0.0
  0
VERTEX
  8
0
 10
-2.8
 20
13.0
 30
0.0
  0
VERTEX
  8
0
 10
-2.9
 20
13.0
 30
0.0
  0
VERTEX
  8
0
 10
-3.0
 20
13.0
 30
0.0
  0
VERTEX
  8
0
 10
-3.1
 20
13.0
 30
0.0
  0
VERTEX
  8
0
 10
-3.2
 20
13.0
 30
0.0
  0
VERTEX
  8
0
 10
-3.3
 20
13.0
 30
0.0
  0
VERTEX
  8
0
 10
-3.4
 20
13.0
 30
0.0
  0
VERTEX
  8
0
 10
-3.5
 20
13.0
 30
0.0
  0
VERTEX
  8
0
 10
-3.6
 20
13.0
 30
0.0
  0
VERTEX
  8
0
 10
-3.7
 20
13.0
 30
0.0
  0
VERTEX
  8
0
 10
-3.8
 20
13.0
 30
0.0
  0
VERTEX
  8
0
 10
-3.9
 20
13.0
 30
0.0
  0
VERTEX
  8
0
 10
-4.0
 20
13.0
 30
0.0
  0
VERTEX
  8
0
 10
-4.1
 20
13.0
 30
0.0
  0
VERTEX
  8
0
 10
-4.2
 20
13.0
 30
0.0
  0
VERTEX
  8
0
 10
-4.3
 20
13.0
 30
0.0
  0
VERTEX
  8
0
 10
-4.4
 20
13.0
 30
0.0
  0
VERTEX
  8
0
 10
-4.5
 20
13.0
 30
0.0
  0
VERTEX
  8
0
 10
-4.6
 20
13.0
 30
0.0
  0
VERTEX
  8
0
 10
-4.7
 20
13.0
 30
0.0
  0
VERTEX
  8
0
 10
-4.8
 20
13.0
 30
0.0
  0
VERTEX
  8
0
 10
-4.9
 20
13.0
 30
0.0
  0
VERTEX
  8
0
 10
-5.0
 20
13.0
 30
0.0
  0
VERTEX
  8
0
 10
-5.1
 20
13.0
 30
0.0
  0
VERTEX
  8
0
 10
-5.2
 20
13.0
 30
0.0
  0
VERTEX
  8
0
 10
-5.3
 20
13.0
 30
0.0
  0
VERTEX
  8
0
 10
-5.4
 20
13.0
 30
0.0
  0
VERTEX
  8
0
 10
-5.5
 20
13.0
 30
0.0
  0
VERTEX
  8
0
 10
-5.6
 20
13.0
 30
0.0
  0
VERTEX
  8
0
 10
-5.7
 20
13.0
 30
0.0
  0
VERTEX
  8
0
 10
-5.8
 20
13.0
 30
0.0
  0
VERTEX
  8
0
 10
-5.9
 20
13.0
 30
0.0
  0
VERTEX
  8
0
 10
-6.0
 20
13.0
 30
0.0
  0
VERTEX
  8
0
 10
-6.1
 20
13.0
 30
0.0
  0
VERTEX
  8
0
 10
-6.2
 20
13.0
 30
0.0
  0
VERTEX
  8
0
 10
-6.3
 20
13.0
 30
0.0
  0
VERTEX
  8
0
 10
-6.4
 20
13.0
 30
0.0
  0
VERTEX
  8
0
 10
-6.5
 20
13.0
 30
0.0
  0
VERTEX
  8
0
 10
-6.6
 20
13.0
 30
0.0
  0
VERTEX
  8
0
 10
-6.7
 20
13.0
 30
0.0
  0
VERTEX
  8
0
 10
-6.8
 20
13.0
 30
0.0
  0
VERTEX
  8
0
 10
-6.9
 20
13.0
 30
0.0
  0
VERTEX
  8
0
 10
-7.0
 20
13.0
 30
0.0
  0
VERTEX
  8
0
 10
-7.1
 20
13.0
 30
0.0
  0
VERTEX
  8
0
 10
-7.2
 20
13.0
 30
0.0
  0
VERTEX
  8
0
 10
-7.3
 20
13.0
 30
0.0
  0
VERTEX
  8
0
 10
-7.4
 20
13.0
 30
0.0
  0
VERTEX
  8
0
 10
-7.5
 20
13.0
 30
0.0
  0
VERTEX
  8
0
 10
-7.6
 20
13.0
 30
0.0
  0
VERTEX
  8
0
 10
-7.7
 20
13.0
 30
0.0
  0
VERTEX
  8
0
 10
-7.8
 20
13.0
 30
0.0
  0
VERTEX
  8
0
 10
-7.9
 20
13.0
 30
0.0
  0
VERTEX
  8
0
 10
-8.0
 20
13.0
 30
0.0
  0
VERTEX
  8
0
 10
-8.1
 20
13.0
 30
0.0
  0
VERTEX
  8
0
 10
-8.2
 20
13.0
 30
0.0
  0
VERTEX
  8
0
 10
-8.3
 20
13.0
 30
0.0
  0
VERTEX
  8
0
 10
-8.4
 20
13.0
 30
0.0
  0
VERTEX
  8
0
 10
-8.5
 20
13.0
 30
0.0
  0
VERTEX
  8
0
 10
-8.6
 20
13.0
 30
0.0
  0
VERTEX
  8
0
 10
-8.7
 20
13.0
 30
0.0
  0
VERTEX
  8
0
 10
-8.8
 20
13.0
 30
0.0
  0
VERTEX
  8
0
 10
-8.9
 20
13.0
 30
0.0
  0
VERTEX
  8
0
 10
-9.0
 20
13.0
 30
0.0
  0
VERTEX
  8
0
 10
-9.1
 20
13.0
 30
0.0
  0
VERTEX
  8
0
 10
-9.2
 20
13.0
 30
0.0
  0
VERTEX
  8
0
 10
-9.3
 20
13.0
 30
0.0
  0
VERTEX
  8
0
 10
-9.4
 20
13.0
 30
0.0
  0
VERTEX
  8
0
 10
-9.5
 20
13.0
 30
0.0
  0
VERTEX
  8
0
 10
-9.6
 20
13.0
 30
0.0
  0
VERTEX
  8
0
 10
-9.7
 20
13.0
 30
0.0
  0
VERTEX
  8
0
 10
-9.8
 20
13.0
 30
0.0
  0
VERTEX
  8
0
 10
-9.9
 20
13.0
 30
0.0
  0
VERTEX
  8
0
 10
-10.0
 20
13.0
 30
0.0
  0
SEQEND
  8
0
  0
POLYLINE
  8
0
 62
0
 70
0
 66
1
 10
0.0
 20
0.0
 30
0.0
  0
VERTEX
  8
0
 10
-2.8
 20
3.8
 30
0.0
  0
VERTEX
  8
0
 10
-2.80231455023
 20
3.88329641985
 30
0.0
  0
VERTEX
  8
0
 10
-2.80953951242
 20
3.96890096204
 30
0.0
  0
VERTEX
  8
0
 10
-2.82208823173
 20
4.05646989142
 30
0.0
  0
VERTEX
  8
0
 10
-2.84035371777
 20
4.14559040898
 30
0.0
  0
VERTEX
  8
0
 10
-2.86469648562
 20
4.23577955622
 30
0.0
  0
VERTEX
  8
0
 10
-2.89543133918
 20
4.3264854006
 30
0.0
  0
VERTEX
  8
0
 10
-2.93281354571
 20
4.41709091648
 30
0.0
  0
VERTEX
  8
0
 10
-2.97702499659
 20
4.5069208869
 30
0.0
  0
VERTEX
  8
0
 10
-3.02816107943
 20
4.59525201044
 30
0.0
  0
VERTEX
  8
0
 10
-3.08621908127
 20
4.68132620597
 30
0.0
  0
VERTEX
  8
0
 10
-3.15108898123
 20
4.7643668757
 30
0.0
  0
VERTEX
  8
0
 10
-3.22254745689
 20
4.84359763192
 30
0.0
  0
VERTEX
  8
0
 10
-3.30025581055
 20
4.91826274
 30
0.0
  0
VERTEX
  8
0
 10
-3.38376231799
 20
4.98764831076
 30
0.0
  0
VERTEX
  8
0
 10
-3.47250922509
 20
5.05110312023
 30
0.0
  0
VERTEX
  8
0
 10
-3.56584429015
 20
5.10805787093
 30
0.0
  0
VERTEX
  8
0
 10
-3.66303642531
 20
5.1580417536
 30
0.0
  0
VERTEX
  8
0
 10
-3.76329467039
 20
5.20069532346
 30
0.0
  0
VERTEX
  8
0
 10
-3.86578947368
 20
5.23577895891
 30
0.0
  0
VERTEX
  8
0
 10
-3.96967509025
 20
5.26317649448
 30
0.0
  0
VERTEX
  8
0
 10
-4.07411185618
 20
5.28289397682
 30
0.0
  0
VERTEX
  8
0
 10
-4.17828716074
 20
5.29505384009
 30
0.0
  0
VERTEX
  8
0
 10
-4.28143410317
 20
5.29988509809
 30
0.0
  0
VERTEX
  8
0
 10
-4.38284706202
 20
5.29771037398
 30
0.0
  0
VERTEX
  8
0
 10
-4.48189368771
 20
5.28893071913
 30
0.0
  0
VERTEX
  8
0
 10
-4.57802311989
 20
5.27400920784
 30
0.0
  0
VERTEX
  8
0
 10
-4.67077049804
 20
5.25345424344
 30
0.0
  0
VERTEX
  8
0
 10
-4.75975805456
 20
5.22780339377
 30
0.0
  0
VERTEX
  8
0
 10
-4.84469324049
 20
5.19760841217
 30
0.0
  0
VERTEX
  8
0
 10
-4.92536443149
 20
5.16342191849
 30
0.0
  0
VERTEX
  8
0
 10
-5.00163480032
 20
5.12578603364
 30
0.0
  0
VERTEX
  8
0
 10
-5.07368155862
 20
5.08507464603
 30
0.0
  0
VERTEX
  8
0
 10
-5.14456182889
 20
5.03964322173
 30
0.0
  0
VERTEX
  8
0
 10
-5.2148234035
 20
4.98873804533
 30
0.0
  0
VERTEX
  8
0
 10
-5.28394495413
 20
4.93218917467
 30
0.0
  0
VERTEX
  8
0
 10
-5.35135695439
 20
4.86988249563
 30
0.0
  0
VERTEX
  8
0
 10
-5.41644762273
 20
4.80177078501
 30
0.0
  0
VERTEX
  8
0
 10
-5.47857142857
 20
4.7278843612
 30
0.0
  0
VERTEX
  8
0
 10
-5.53706025071
 20
4.64834069578
 30
0.0
  0
VERTEX
  8
0
 10
-5.5912371134
 20
4.5633522889
 30
0.0
  0
VERTEX
  8
0
 10
-5.64043222828
 20
4.47323208582
 30
0.0
  0
VERTEX
  8
0
 10
-5.68400085215
 20
4.37839574795
 30
0.0
  0
VERTEX
  8
0
 10
-5.72134225291
 20
4.27936019869
 30
0.0
  0
VERTEX
  8
0
 10
-5.75191888356
 20
4.17673804635
 30
0.0
  0
VERTEX
  8
0
 10
-5.77527472527
 20
4.07122773635
 30
0.0
  0
VERTEX
  8
0
 10
-5.79105170128
 20
3.96359958467
 30
0.0
  0
VERTEX
  8
0
 10
-5.79900310146
 20
3.85467816572
 30
0.0
  0
VERTEX
  8
0
 10
-5.79900310146
 20
3.74532183428
 30
0.0
  0
VERTEX
  8
0
 10
-5.79105170128
 20
3.63640041533
 30
0.0
  0
VERTEX
  8
0
 10
-5.77527472527
 20
3.52877226365
 30
0.0
  0
VERTEX
  8
0
 10
-5.75191888356
 20
3.42326195365
 30
0.0
  0
VERTEX
  8
0
 10
-5.72134225291
 20
3.32063980131
 30
0.0
  0
VERTEX
  8
0
 10
-5.68400085215
 20
3.22160425205
 30
0.0
  0
VERTEX
  8
0
 10
-5.64043222828
 20
3.12676791418
 30
0.0
  0
VERTEX
  8
0
 10
-5.5912371134
 20
3.0366477111
 30
0.0
  0
VERTEX
  8
0
 10
-5.53706025071
 20
2.95165930422
 30
0.0
  0
VERTEX
  8
0
 10
-5.47857142857
 20
2.8721156388
 30
0.0
  0
VERTEX
  8
0
 10
-5.41644762273
 20
2.79822921499
 30
0.0
  0
VERTEX
  8
0
 10
-5.35135695439
 20
2.73011750437
 30
0.0
  0
VERTEX
  8
0
 10
-5.28394495413
 20
2.66781082533
 30
0.0
  0
VERTEX
  8
0
 10
-5.2148234035
 20
2.61126195467
 30
0.0
  0
VERTEX
  8
0
 10
-5.14456182889
 20
2.56035677827
 30
0.0
  0
VERTEX
  8
0
 10
-5.07368155862
 20
2.51492535397
 30
0.0
  0
VERTEX
  8
0
 10
-5.00163480032
 20
2.47421396636
 30
0.0
  0
VERTEX
  8
0
 10
-4.92536443149
 20
2.43657808151
 30
0.0
  0
VERTEX
  8
0
 10
-4.84469324049
 20
2.40239158783
 30
0.0
  0
VERTEX
  8
0
 10
-4.75975805456
 20
2.37219660623
 30
0.0
  0
VERTEX
  8
0
 10
-4.67077049804
 20
2.34654575656
 30
0.0
  0
VERTEX
  8
0
 10
-4.57802311989
 20
2.32599079216
 30
0.0
  0
VERTEX
  8
0
 10
-4.48189368771
 20
2.31106928087
 30
0.0
  0
VERTEX
  8
0
 10
-4.38284706202
 20
2.30228962602
 30
0.0
  0
VERTEX
  8
0
 10
-4.28143410317
 20
2.30011490191
 30
0.0
  0
VERTEX
  8
0
 10
-4.17828716074
 20
2.30494615991
 30
0.0
  0
VERTEX
  8
0
 10
-4.07411185618
 20
2.31710602318
 30
0.0
  0
VERTEX
  8
0
 10
-3.96967509025
 20
2.33682350552
 30
0.0
  0
VERTEX
  8
0
 10
-3.86578947368
 20
2.36422104109
 30
0.0
  0
VERTEX
  8
0
 10
-3.76329467039
 20
2.39930467654
 30
0.0
  0
VERTEX
  8
0
 10
-3.66303642531
 20
2.4419582464
 30
0.0
  0
VERTEX
  8
0
 10
-3.56584429015
 20
2.49194212907
 30
0.0
  0
VERTEX
  8
0
 10
-3.47250922509
 20
2.54889687977
 30
0.0
  0
VERTEX
  8
0
 10
-3.38376231799
 20
2.61235168924
 30
0.0
  0
VERTEX
  8
0
 10
-3.30025581055
 20
2.68173726
 30
0.0
  0
VERTEX
  8
0
 10
-3.22254745689
 20
2.75640236808
 30
0.0
  0
VERTEX
  8
0
 10
-3.15108898123
 20
2.8356331243
 30
0.0
  0
VERTEX
  8
0
 10
-3.08621908127
 20
2.91867379403
 30
0.0
  0
VERTEX
  8
0
 10
-3.02816107943
 20
3.00474798956
 30
0.0
  0
VERTEX
  8
0
 10
-2.97702499659
 20
3.0930791131
 30
0.0
  0
VERTEX
  8
0
 10
-2.93281354571
 20
3.18290908352
 30
0.0
  0
VERTEX
  8
0
 10
-2.89543133918
 20
3.2735145994
 30
0.0
  0
VERTEX
  8
0
 10
-2.86469648562
 20
3.36422044378
 30
0.0
  0
VERTEX
  8
0
 10
-2.84035371777
 20
3.45440959102
 30
0.0
  0
VERTEX
  8
0
 10
-2.82208823173
 20
3.54353010858
 30
0.0
  0
VERTEX
  8
0
 10
-2.80953951242
 20
3.63109903796
 30
0.0
  0
VERTEX
  8
0
 10
-2.80231455023
 20
3.71670358015
 30
0.0
  0
VERTEX
  8
0
 10
-2.8
 20
3.8
 30
0.0
  0
SEQEND
  8
0
  0
POLYLINE
  8
0
 62
0
 70
0
 66
1
 10
0.0
 20
0.0
 30
0.0
  0
VERTEX
  8
0
 10
5.8
 20
3.8
 30
0.0
  0
VERTEX
  8
0
 10
5.79768544977
 20
3.88329641985
 30
0.0
  0
VERTEX
  8
0
 10
5.79046048758
 20
3.96890096204
 30
0.0
  0
VERTEX
  8
0
 10
5.77791176827
 20
4.05646989142
 30
0.0
  0
VERTEX
  8
0
 10
5.75964628223
 20
4.14559040898
 30
0.0
  0
VERTEX
  8
0
 10
5.73530351438
 20
4.23577955622
 30
0.0
  0
VERTEX
  8
0
 10
5.70456866082
 20
4.3264854006
 30
0.0
  0
VERTEX
  8
0
 10
5.66718645429
 20
4.41709091648
 30
0.0
  0
VERTEX
  8
0
 10
5.62297500341
 20
4.5069208869
 30
0.0
  0
VERTEX
  8
0
 10
5.57183892057
 20
4.59525201044
 30
0.0
  0
VERTEX
  8
0
 10
5.51378091873
 20
4.68132620597
 30
0.0
  0
VERTEX
  8
0
 10
5.44891101877
 20
4.7643668757
 30
0.0
  0
VERTEX
  8
0
 10
5.37745254311
 20
4.84359763192
 30
0.0
  0
VERTEX
  8
0
 10
5.29974418945
 20
4.91826274
 30
0.0
  0
VERTEX
  8
0
 10
5.21623768201
 20
4.98764831076
 30
0.0
  0
VERTEX
  8
0
 10
5.12749077491
 20
5.05110312023
 30
0.0
  0
VERTEX
  8
0
 10
5.03415570985
 20
5.10805787093
 30
0.0
  0
VERTEX
  8
0
 10
4.93696357469
 20
5.1580417536
 30
0.0
  0
VERTEX
  8
0
 10
4.83670532961
 20
5.20069532346
 30
0.0
  0
VERTEX
  8
0
 10
4.73421052632
 20
5.23577895891
 30
0.0
  0
VERTEX
  8
0
 10
4.63032490975
 20
5.26317649448
 30
0.0
  0
VERTEX
  8
0
 10
4.52588814382
 20
5.28289397682
 30
0.0
  0
VERTEX
  8
0
 10
4.42171283926
 20
5.29505384009
 30
0.0
  0
VERTEX
  8
0
 10
4.31856589683
 20
5.29988509809
 30
0.0
  0
VERTEX
  8
0
 10
4.21715293798
 20
5.29771037398
 30
0.0
  0
VERTEX
  8
0
 10
4.11810631229
 20
5.28893071913
 30
0.0
  0
VERTEX
  8
0
 10
4.02197688011
 20
5.27400920784
 30
0.0
  0
VERTEX
  8
0
 10
3.92922950196
 20
5.25345424344
 30
0.0
  0
VERTEX
  8
0
 10
3.84024194544
 20
5.22780339377
 30
0.0
  0
VERTEX
  8
0
 10
3.75530675951
 20
5.19760841217
 30
0.0
  0
VERTEX
  8
0
 10
3.67463556851
 20
5.16342191849
 30
0.0
  0
VERTEX
  8
0
 10
3.59836519968
 20
5.12578603364
 30
0.0
  0
VERTEX
  8
0
 10
3.52631844138
 20
5.08507464603
 30
0.0
  0
VERTEX
  8
0
 10
3.45543817111
 20
5.03964322173
 30
0.0
  0
VERTEX
  8
0
 10
3.3851765965
 20
4.98873804533
 30
0.0
  0
VERTEX
  8
0
 10
3.31605504587
 20
4.93218917467
 30
0.0
  0
VERTEX
  8
0
 10
3.24864304561
 20
4.86988249563
 30
0.0
  0
VERTEX
  8
0
 10
3.18355237727
 20
4.80177078501
 30
0.0
  0
VERTEX
  8
0
 10
3.12142857143
 20
4.7278843612
 30
0.0
  0
VERTEX
  8
0
 10
3.06293974929
 20
4.64834069578
 30
0.0
  0
VERTEX
  8
0
 10
3.0087628866
 20
4.5633522889
 30
0.0
  0
VERTEX
  8
0
 10
2.95956777172
 20
4.47323208582
 30
0.0
  0
VERTEX
  8
0
 10
2.91599914785
 20
4.37839574795
 30
0.0
  0
VERTEX
  8
0
 10
2.87865774709
 20
4.27936019869
 30
0.0
  0
VERTEX
  8
0
 10
2.84808111644
 20
4.17673804635
 30
0.0
  0
VERTEX
  8
0
 10
2.82472527473
 20
4.07122773635
 30
0.0
  0
VERTEX
  8
0
 10
2.80894829872
 20
3.96359958467
 30
0.0
  0
VERTEX
  8
0
 10
2.80099689854
 20
3.85467816572
 30
0.0
  0
VERTEX
  8
0
 10
2.80099689854
 20
3.74532183428
 30
0.0
  0
VERTEX
  8
0
 10
2.80894829872
 20
3.63640041533
 30
0.0
  0
VERTEX
  8
0
 10
2.82472527473
 20
3.52877226365
 30
0.0
  0
VERTEX
  8
0
 10
2.84808111644
 20
3.42326195365
 30
0.0
  0
VERTEX
  8
0
 10
2.87865774709
 20
3.32063980131
 30
0.0
  0
VERTEX
  8
0
 10
2.91599914785
 20
3.22160425205
 30
0.0
  0
VERTEX
  8
0
 10
2.95956777172
 20
3.12676791418
 30
0.0
  0
VERTEX
  8
0
 10
3.0087628866
 20
3.0366477111
 30
0.0
  0
VERTEX
  8
0
 10
3.06293974929
 20
2.95165930422
 30
0.0
  0
VERTEX
  8
0
 10
3.12142857143
 20
2.8721156388
 30
0.0
  0
VERTEX
  8
0
 10
3.18355237727
 20
2.79822921499
 30
0.0
  0
VERTEX
  8
0
 10
3.24864304561
 20
2.73011750437
 30
0.0
  0
VERTEX
  8
0
 10
3.31605504587
 20
2.66781082533
 30
0.0
  0
VERTEX
  8
0
 10
3.3851765965
 20
2.61126195467
 30
0.0
  0
VERTEX
  8
0
 10
3.45543817111
 20
2.56035677827
 30
0.0
  0
VERTEX
  8
0
 10
3.52631844138
 20
2.51492535397
 30
0.0
  0
VERTEX
  8
0
 10
3.59836519968
 20
2.47421396636
 30
0.0
  0
VERTEX
  8
0
 10
3.67463556851
 20
2.43657808151
 30
0.0
  0
VERTEX
  8
0
 10
3.75530675951
 20
2.40239158783
 30
0.0
  0
VERTEX
  8
0
 10
3.84024194544
 20
2.37219660623
 30
0.0
  0
VERTEX
  8
0
 10
3.92922950196
 20
2.34654575656
 30
0.0
  0
VERTEX
  8
0
 10
4.02197688011
 20
2.32599079216
 30
0.0
  0
VERTEX
  8
0
 10
4.11810631229
 20
2.31106928087
 30
0.0
  0
VERTEX
  8
0
 10
4.21715293798
 20
2.30228962602
 30
0.0
  0
VERTEX
  8
0
 10
4.31856589683
 20
2.30011490191
 30
0.0
  0
VERTEX
  8
0
 10
4.42171283926
 20
2.30494615991
 30
0.0
  0
VERTEX
  8
0
 10
4.52588814382
 20
2.31710602318
 30
0.0
  0
VERTEX
  8
0
 10
4.63032490975
 20
2.33682350552
 30
0.0
  0
VERTEX
  8
0
 10
4.73421052632
 20
2.36422104109
 30
0.0
  0
VERTEX
  8
0
 10
4.83670532961
 20
2.39930467654
 30
0.0
  0
VERTEX
  8
0
 10
4.93696357469
 20
2.4419582464
 30
0.0
  0
VERTEX
  8
0
 10
5.03415570985
 20
2.49194212907
 30
0.0
  0
VERTEX
  8
0
 10
5.12749077491
 20
2.54889687977
 30
0.0
  0
VERTEX
  8
0
 10
5.21623768201
 20
2.61235168924
 30
0.0
  0
VERTEX
  8
0
 10
5.29974418945
 20
2.68173726
 30
0.0
  0
VERTEX
  8
0
 10
5.37745254311
 20
2.75640236808
 30
0.0
  0
VERTEX
  8
0
 10
5.44891101877
 20
2.8356331243
 30
0.0
  0
VERTEX
  8
0
 10
5.51378091873
 20
2.91867379403
 30
0.0
  0
VERTEX
  8
0
 10
5.57183892057
 20
3.00474798956
 30
0.0
  0
VERTEX
  8
0
 10
5.62297500341
 20
3.0930791131
 30
0.0
  0
VERTEX
  8
0
 10
5.66718645429
 20
3.18290908352
 30
0.0
  0
VERTEX
  8
0
 10
5.70456866082
 20
3.2735145994
 30
0.0
  0
VERTEX
  8
0
 10
5.73530351438
 20
3.36422044378
 30
0.0
  0
VERTEX
  8
0
 10
5.75964628223
 20
3.45440959102
 30
0.0
  0
VERTEX
  8
0
 10
5.77791176827
 20
3.54353010858
 30
0.0
  0
VERTEX
  8
0
 10
5.79046048758
 20
3.63109903796
 30
0.0
  0
VERTEX
  8
0
 10
5.79768544977
 20
3.71670358015
 30
0.0
  0
VERTEX
  8
0
 10
5.8
 20
3.8
 30
0.0
  0
SEQEND
  8
0
  0
ENDSEC
  0
EOF
